<?xml version="1.0" encoding="utf-8"?>
<svg viewBox="129.765 77.753 231 280.1" xmlns="http://www.w3.org/2000/svg">
  <path d="M230.9,123.8l-5.1-13.4c0,0,0-0.1-0.1-0.1c-0.1-0.4-0.5-0.8-0.9-0.8h-53.4l-54.2-96.7V4.2h-0.1 C117,1.8,115,0,112.6,0c-2.4,0-4.4,1.8-4.7,4.2h-0.1v0.6c0,0,0,0,0,0s0,0,0,0V13l-54.1,96.6H1c-0.5,0-1,0.4-1,1v163.2 c0,0.4,0.3,0.8,0.7,0.9c0,0,0.1,0.1,0.1,0.1l12.7,5.2c0.1,0,0.2,0.1,0.4,0.1H230c0.5,0,1-0.4,1-1V124.2 C231,124.1,231,123.9,230.9,123.8z M109.8,4.8c0-1.6,1.3-2.8,2.8-2.8c1.6,0,2.8,1.3,2.8,2.8c0,1.6-1.3,2.8-2.8,2.8 C111,7.6,109.8,6.4,109.8,4.8L109.8,4.8z M109.8,8.6c0.8,0.6,1.8,1,2.8,1c1.1,0,2-0.4,2.8-1v9.1c0,1.2-1,2.3-2.3,2.3H112 c-1.2,0-2.3-1-2.3-2.3V8.6z M107.8,16.9v0.8c0,2.3,1.9,4.2,4.2,4.2h1.1c2.3,0,4.2-1.9,4.2-4.2v-0.9l51.9,92.8H55.9L107.8,16.9z  M1.9,111.5h50.7l-2.3,4.1c-0.4-0.1-0.7-0.2-1.1-0.2c-2.4,0-4.4,2-4.4,4.4s2,4.4,4.4,4.4c2.4,0,4.4-2,4.4-4.4 c0-1.4-0.6-2.6-1.6-3.4l2.8-5h115.5l2.9,5.1c-0.9,0.8-1.5,2-1.5,3.3c0,2.4,2,4.4,4.4,4.4c2.4,0,4.4-2,4.4-4.4s-2-4.4-4.4-4.4 c-0.4,0-0.9,0.1-1.3,0.2l-2.3-4.2h51.3V138H1.9V111.5z M48.7,120.5c0.2,0.1,0.3,0.1,0.5,0.1c0.3,0,0.7-0.2,0.8-0.5l1-1.8 c0.4,0.4,0.6,1,0.6,1.6c0,1.4-1.1,2.5-2.5,2.5c-1.4,0-2.5-1.1-2.5-2.5c0-1.4,1.1-2.5,2.5-2.5c0,0,0.1,0,0.1,0l-1,1.7 C48.1,119.6,48.3,120.2,48.7,120.5z M176.9,119.1l-1-1.7c0.1,0,0.2,0,0.3,0c1.4,0,2.5,1.1,2.5,2.5c0,1.4-1.1,2.5-2.5,2.5 s-2.5-1.1-2.5-2.5c0-0.6,0.2-1.1,0.5-1.5l0.9,1.7c0.2,0.3,0.5,0.5,0.8,0.5c0.2,0,0.3,0,0.5-0.1C177,120.2,177.1,119.6,176.9,119.1z  M140.1,207.9l-0.4-6.3l20.9-33h10v31.2h5.7v8h-5.7v10.8h-9.9v-10.8H140.1z M129.1,188.8v9.2c0,6.9-1.4,12.2-4.3,15.9 c-2.9,3.7-7.1,5.5-12.6,5.5c-5.5,0-9.6-1.8-12.5-5.4c-2.9-3.6-4.4-8.8-4.4-15.5v-9.2c0-7,1.5-12.3,4.4-15.9 c2.9-3.6,7.1-5.4,12.5-5.4c5.5,0,9.6,1.8,12.5,5.4C127.6,176.9,129.1,182,129.1,188.8z M48.6,207.9l-0.4-6.3l20.9-33h10v31.2h5.7v8 h-5.7v10.8h-9.9v-10.8H48.6z M1.9,248.9h221.9v23.9H1.9V248.9z M229.1,278.1h-215l-8.2-3.3h219c0.5,0,1-0.4,1-1v-24.3l3.2,6.2 V278.1z M229.1,144.3l-3.2-5.8v-22.6l3.2,8.5V144.3z" style="paint-order: fill; fill: rgb(46, 50, 58);" transform="matrix(1, 0, 0, 1, 129.765167, 77.753029)"/>
  <polygon points="160.6,182.2 159.9,183.3 149.5,199.8 160.6,199.8" style="fill: rgb(67, 67, 67);" transform="matrix(1, 0, 0, 1, 129.765167, 77.753029)"/>
  <polygon points="69.2,182.2 68.5,183.3 58.1,199.8 69.2,199.8" style="fill: rgb(67, 67, 67);" transform="matrix(1, 0, 0, 1, 129.765167, 77.753029)"/>
  <path d="M112.2,175.9c-2.3,0-4.1,0.9-5.2,2.7s-1.7,4.6-1.8,8.5v12.2c0,4.1,0.6,7.1,1.7,9.1c1.1,2,2.9,3,5.3,3 c2.4,0,4.2-1,5.3-2.9s1.6-4.8,1.7-8.7v-11.9c0-4.2-0.6-7.2-1.7-9.1C116.3,176.9,114.6,175.9,112.2,175.9z" style="fill: rgb(67, 67, 67);" transform="matrix(1, 0, 0, 1, 129.765167, 77.753029)"/>
  <path d="M212.4,121.2c-2,0-3.6,1.6-3.6,3.6c0,2,1.6,3.6,3.6,3.6s3.6-1.6,3.6-3.6C216,122.8,214.4,121.2,212.4,121.2z  M212.4,126.4c-0.9,0-1.6-0.7-1.6-1.6s0.7-1.6,1.6-1.6s1.6,0.7,1.6,1.6S213.3,126.4,212.4,126.4z" style="fill: rgb(46, 50, 58);" transform="matrix(1, 0, 0, 1, 129.765167, 77.753029)"/>
  <path d="M201.4,121.2c-2,0-3.6,1.6-3.6,3.6c0,2,1.6,3.6,3.6,3.6s3.6-1.6,3.6-3.6C205,122.8,203.4,121.2,201.4,121.2z  M201.4,126.4c-0.9,0-1.6-0.7-1.6-1.6s0.7-1.6,1.6-1.6s1.6,0.7,1.6,1.6S202.3,126.4,201.4,126.4z" style="fill: rgb(46, 50, 58);" transform="matrix(1, 0, 0, 1, 129.765167, 77.753029)"/>
  <path d="M20.3,119.9h-9.7c-0.5,0-1,0.4-1,1c0,0.5,0.4,1,1,1h9.7c0.5,0,1-0.4,1-1C21.2,120.3,20.8,119.9,20.3,119.9z" style="fill: rgb(46, 50, 58);" transform="matrix(1, 0, 0, 1, 129.765167, 77.753029)"/>
  <path d="M20.3,123.8h-9.7c-0.5,0-1,0.4-1,1c0,0.5,0.4,1,1,1h9.7c0.5,0,1-0.4,1-1C21.2,124.2,20.8,123.8,20.3,123.8z" style="fill: rgb(46, 50, 58);" transform="matrix(1, 0, 0, 1, 129.765167, 77.753029)"/>
  <path d="M20.3,127.7h-9.7c-0.5,0-1,0.4-1,1s0.4,1,1,1h9.7c0.5,0,1-0.4,1-1S20.8,127.7,20.3,127.7z" style="fill: rgb(46, 50, 58);" transform="matrix(1, 0, 0, 1, 129.765167, 77.753029)"/>
  <rect x="31.22" y="167.512" width="176.136" height="54.924" style="fill: rgb(46, 50, 58);" transform="matrix(1, 0, 0, 1, 129.765167, 77.753029)"/>
  <path d="M 26.791 223.713 C 26.791 224.953 26.388 225.936 25.581 226.663 C 24.774 227.396 23.678 227.763 22.291 227.763 L 18.451 227.763 L 18.451 232.853 L 16.681 232.853 L 16.681 219.783 L 22.181 219.783 C 23.648 219.783 24.781 220.126 25.581 220.813 C 26.388 221.5 26.791 222.466 26.791 223.713 Z M 25.011 223.733 C 25.011 222.046 23.998 221.203 21.971 221.203 L 18.451 221.203 L 18.451 226.363 L 22.041 226.363 C 24.021 226.363 25.011 225.486 25.011 223.733 ZM 31.624 233.043 C 30.617 233.043 29.86 232.776 29.354 232.243 C 28.847 231.71 28.594 230.98 28.594 230.053 C 28.594 229.013 28.934 228.213 29.614 227.653 C 30.3 227.1 31.404 226.803 32.924 226.763 L 35.174 226.733 L 35.174 226.183 C 35.174 225.363 35 224.78 34.654 224.433 C 34.307 224.08 33.764 223.903 33.024 223.903 C 32.277 223.903 31.734 224.03 31.394 224.283 C 31.054 224.536 30.85 224.94 30.784 225.493 L 29.034 225.343 C 29.32 223.536 30.664 222.633 33.064 222.633 C 34.324 222.633 35.274 222.92 35.914 223.493 C 36.547 224.073 36.864 224.91 36.864 226.003 L 36.864 230.333 C 36.864 230.826 36.93 231.196 37.064 231.443 C 37.19 231.696 37.437 231.823 37.804 231.823 C 37.964 231.823 38.147 231.803 38.354 231.763 L 38.354 232.793 C 37.934 232.893 37.504 232.943 37.064 232.943 C 36.444 232.943 35.994 232.783 35.714 232.463 C 35.434 232.136 35.274 231.626 35.234 230.933 L 35.174 230.933 C 34.747 231.7 34.254 232.243 33.694 232.563 C 33.127 232.883 32.437 233.043 31.624 233.043 Z M 32.004 231.783 C 32.617 231.783 33.16 231.646 33.634 231.373 C 34.114 231.093 34.49 230.71 34.764 230.223 C 35.037 229.736 35.174 229.236 35.174 228.723 L 35.174 227.903 L 33.354 227.933 C 32.567 227.946 31.97 228.026 31.564 228.173 C 31.157 228.326 30.847 228.556 30.634 228.863 C 30.414 229.17 30.304 229.576 30.304 230.083 C 30.304 230.623 30.45 231.043 30.744 231.343 C 31.037 231.636 31.457 231.783 32.004 231.783 Z M 32.474 221.713 L 31.604 221.713 L 31.604 221.523 L 33.624 218.863 L 35.544 218.863 L 35.544 219.133 L 32.474 221.713 ZM 43.422 236.793 C 42.329 236.793 41.459 236.58 40.812 236.153 C 40.159 235.72 39.742 235.11 39.562 234.323 L 41.232 234.073 C 41.345 234.54 41.592 234.9 41.972 235.153 C 42.352 235.4 42.852 235.523 43.472 235.523 C 45.139 235.523 45.972 234.55 45.972 232.603 L 45.972 230.993 L 45.952 230.993 C 45.632 231.633 45.199 232.116 44.652 232.443 C 44.099 232.763 43.455 232.923 42.722 232.923 C 41.489 232.923 40.585 232.516 40.012 231.703 C 39.432 230.883 39.142 229.6 39.142 227.853 C 39.142 226.08 39.452 224.77 40.072 223.923 C 40.692 223.076 41.635 222.653 42.902 222.653 C 43.615 222.653 44.235 222.816 44.762 223.143 C 45.282 223.47 45.685 223.933 45.972 224.533 L 45.982 224.533 C 45.982 224.346 45.995 224.023 46.022 223.563 C 46.049 223.11 46.075 222.86 46.102 222.813 L 47.682 222.813 C 47.649 223.146 47.632 223.84 47.632 224.893 L 47.632 232.563 C 47.632 235.383 46.229 236.793 43.422 236.793 Z M 45.972 227.833 C 45.972 227.02 45.859 226.316 45.632 225.723 C 45.412 225.13 45.099 224.68 44.692 224.373 C 44.285 224.06 43.825 223.903 43.312 223.903 C 42.459 223.903 41.839 224.213 41.452 224.833 C 41.059 225.446 40.862 226.446 40.862 227.833 C 40.862 229.206 41.045 230.193 41.412 230.793 C 41.779 231.393 42.402 231.693 43.282 231.693 C 43.809 231.693 44.279 231.54 44.692 231.233 C 45.099 230.92 45.412 230.476 45.632 229.903 C 45.859 229.323 45.972 228.633 45.972 227.833 ZM 51.841 220.683 L 50.171 220.683 L 50.171 219.083 L 51.841 219.083 L 51.841 220.683 Z M 51.841 232.853 L 50.171 232.853 L 50.171 222.813 L 51.841 222.813 L 51.841 232.853 ZM 62.448 232.853 L 60.768 232.853 L 60.768 226.493 C 60.768 225.826 60.705 225.313 60.578 224.953 C 60.445 224.586 60.238 224.323 59.958 224.163 C 59.672 224.003 59.252 223.923 58.698 223.923 C 57.898 223.923 57.265 224.196 56.798 224.743 C 56.338 225.296 56.108 226.06 56.108 227.033 L 56.108 232.853 L 54.438 232.853 L 54.438 224.953 C 54.438 223.786 54.418 223.073 54.378 222.813 L 55.958 222.813 C 55.965 222.846 55.972 222.93 55.978 223.063 C 55.985 223.203 55.992 223.36 55.998 223.533 C 56.005 223.713 56.015 224.046 56.028 224.533 L 56.058 224.533 C 56.445 223.84 56.888 223.35 57.388 223.063 C 57.895 222.776 58.522 222.633 59.268 222.633 C 60.368 222.633 61.175 222.906 61.688 223.453 C 62.195 224 62.448 224.903 62.448 226.163 L 62.448 232.853 ZM 67.517 233.043 C 66.51 233.043 65.754 232.776 65.247 232.243 C 64.74 231.71 64.487 230.98 64.487 230.053 C 64.487 229.013 64.827 228.213 65.507 227.653 C 66.194 227.1 67.297 226.803 68.817 226.763 L 71.067 226.733 L 71.067 226.183 C 71.067 225.363 70.894 224.78 70.547 224.433 C 70.2 224.08 69.657 223.903 68.917 223.903 C 68.17 223.903 67.627 224.03 67.287 224.283 C 66.947 224.536 66.744 224.94 66.677 225.493 L 64.927 225.343 C 65.214 223.536 66.557 222.633 68.957 222.633 C 70.217 222.633 71.167 222.92 71.807 223.493 C 72.44 224.073 72.757 224.91 72.757 226.003 L 72.757 230.333 C 72.757 230.826 72.824 231.196 72.957 231.443 C 73.084 231.696 73.33 231.823 73.697 231.823 C 73.857 231.823 74.04 231.803 74.247 231.763 L 74.247 232.793 C 73.827 232.893 73.397 232.943 72.957 232.943 C 72.337 232.943 71.887 232.783 71.607 232.463 C 71.327 232.136 71.167 231.626 71.127 230.933 L 71.067 230.933 C 70.64 231.7 70.147 232.243 69.587 232.563 C 69.02 232.883 68.33 233.043 67.517 233.043 Z M 67.897 231.783 C 68.51 231.783 69.054 231.646 69.527 231.373 C 70.007 231.093 70.384 230.71 70.657 230.223 C 70.93 229.736 71.067 229.236 71.067 228.723 L 71.067 227.903 L 69.247 227.933 C 68.46 227.946 67.864 228.026 67.457 228.173 C 67.05 228.326 66.74 228.556 66.527 228.863 C 66.307 229.17 66.197 229.576 66.197 230.083 C 66.197 230.623 66.344 231.043 66.637 231.343 C 66.93 231.636 67.35 231.783 67.897 231.783 ZM 88.84 232.853 L 87.16 232.853 L 87.16 226.493 C 87.16 225.826 87.097 225.313 86.97 224.953 C 86.837 224.586 86.63 224.323 86.35 224.163 C 86.063 224.003 85.643 223.923 85.09 223.923 C 84.29 223.923 83.657 224.196 83.19 224.743 C 82.73 225.296 82.5 226.06 82.5 227.033 L 82.5 232.853 L 80.83 232.853 L 80.83 224.953 C 80.83 223.786 80.81 223.073 80.77 222.813 L 82.35 222.813 C 82.357 222.846 82.363 222.93 82.37 223.063 C 82.377 223.203 82.383 223.36 82.39 223.533 C 82.397 223.713 82.407 224.046 82.42 224.533 L 82.45 224.533 C 82.837 223.84 83.28 223.35 83.78 223.063 C 84.287 222.776 84.913 222.633 85.66 222.633 C 86.76 222.633 87.567 222.906 88.08 223.453 C 88.587 224 88.84 224.903 88.84 226.163 L 88.84 232.853 ZM 93.908 233.043 C 92.902 233.043 92.145 232.776 91.638 232.243 C 91.132 231.71 90.878 230.98 90.878 230.053 C 90.878 229.013 91.218 228.213 91.898 227.653 C 92.585 227.1 93.688 226.803 95.208 226.763 L 97.458 226.733 L 97.458 226.183 C 97.458 225.363 97.285 224.78 96.938 224.433 C 96.592 224.08 96.048 223.903 95.308 223.903 C 94.562 223.903 94.018 224.03 93.678 224.283 C 93.338 224.536 93.135 224.94 93.068 225.493 L 91.318 225.343 C 91.605 223.536 92.948 222.633 95.348 222.633 C 96.608 222.633 97.558 222.92 98.198 223.493 C 98.832 224.073 99.148 224.91 99.148 226.003 L 99.148 230.333 C 99.148 230.826 99.215 231.196 99.348 231.443 C 99.475 231.696 99.722 231.823 100.088 231.823 C 100.248 231.823 100.432 231.803 100.638 231.763 L 100.638 232.793 C 100.218 232.893 99.788 232.943 99.348 232.943 C 98.728 232.943 98.278 232.783 97.998 232.463 C 97.718 232.136 97.558 231.626 97.518 230.933 L 97.458 230.933 C 97.032 231.7 96.538 232.243 95.978 232.563 C 95.412 232.883 94.722 233.043 93.908 233.043 Z M 94.288 231.783 C 94.902 231.783 95.445 231.646 95.918 231.373 C 96.398 231.093 96.775 230.71 97.048 230.223 C 97.322 229.736 97.458 229.236 97.458 228.723 L 97.458 227.903 L 95.638 227.933 C 94.852 227.946 94.255 228.026 93.848 228.173 C 93.442 228.326 93.132 228.556 92.918 228.863 C 92.698 229.17 92.588 229.576 92.588 230.083 C 92.588 230.623 92.735 231.043 93.028 231.343 C 93.322 231.636 93.742 231.783 94.288 231.783 Z M 96.908 221.713 C 96.648 221.713 96.388 221.656 96.128 221.543 C 95.868 221.423 95.618 221.296 95.378 221.163 C 95.132 221.023 94.902 220.896 94.688 220.783 C 94.468 220.663 94.262 220.603 94.068 220.603 C 93.728 220.603 93.475 220.7 93.308 220.893 C 93.142 221.086 93.028 221.36 92.968 221.713 L 92.128 221.713 C 92.195 221.08 92.302 220.6 92.448 220.273 C 92.602 219.953 92.802 219.696 93.048 219.503 C 93.302 219.316 93.622 219.223 94.008 219.223 C 94.282 219.223 94.548 219.28 94.808 219.393 C 95.068 219.506 95.318 219.633 95.558 219.773 C 95.798 219.913 96.025 220.04 96.238 220.153 C 96.452 220.273 96.652 220.333 96.838 220.333 C 97.458 220.333 97.822 219.963 97.928 219.223 L 98.778 219.223 C 98.672 220.136 98.465 220.78 98.158 221.153 C 97.852 221.526 97.435 221.713 96.908 221.713 ZM 110.397 227.823 C 110.397 229.583 110.01 230.893 109.237 231.753 C 108.463 232.613 107.34 233.043 105.867 233.043 C 104.4 233.043 103.293 232.593 102.547 231.693 C 101.8 230.8 101.427 229.51 101.427 227.823 C 101.427 224.363 102.927 222.633 105.927 222.633 C 107.46 222.633 108.587 223.053 109.307 223.893 C 110.033 224.74 110.397 226.05 110.397 227.823 Z M 108.647 227.823 C 108.647 226.436 108.44 225.43 108.027 224.803 C 107.613 224.176 106.923 223.863 105.957 223.863 C 104.977 223.863 104.27 224.183 103.837 224.823 C 103.397 225.463 103.177 226.463 103.177 227.823 C 103.177 229.15 103.393 230.143 103.827 230.803 C 104.253 231.47 104.927 231.803 105.847 231.803 C 106.853 231.803 107.57 231.483 107.997 230.843 C 108.43 230.196 108.647 229.19 108.647 227.823 ZM 126.18 228.183 L 119.02 228.183 C 119.02 229.336 119.257 230.226 119.73 230.853 C 120.21 231.473 120.907 231.783 121.82 231.783 C 122.547 231.783 123.127 231.64 123.56 231.353 C 124 231.06 124.297 230.69 124.45 230.243 L 125.91 230.663 C 125.31 232.25 123.947 233.043 121.82 233.043 C 120.34 233.043 119.21 232.6 118.43 231.713 C 117.657 230.826 117.27 229.513 117.27 227.773 C 117.27 226.113 117.657 224.84 118.43 223.953 C 119.21 223.073 120.32 222.633 121.76 222.633 C 124.707 222.633 126.18 224.41 126.18 227.963 L 126.18 228.183 Z M 119.04 226.903 L 124.46 226.903 C 124.367 225.85 124.097 225.08 123.65 224.593 C 123.203 224.106 122.563 223.863 121.73 223.863 C 120.917 223.863 120.273 224.133 119.8 224.673 C 119.327 225.213 119.073 225.956 119.04 226.903 ZM 136.348 232.853 L 134.668 232.853 L 134.668 226.493 C 134.668 225.826 134.605 225.313 134.478 224.953 C 134.345 224.586 134.138 224.323 133.858 224.163 C 133.572 224.003 133.152 223.923 132.598 223.923 C 131.798 223.923 131.165 224.196 130.698 224.743 C 130.238 225.296 130.008 226.06 130.008 227.033 L 130.008 232.853 L 128.338 232.853 L 128.338 224.953 C 128.338 223.786 128.318 223.073 128.278 222.813 L 129.858 222.813 C 129.865 222.846 129.872 222.93 129.878 223.063 C 129.885 223.203 129.892 223.36 129.898 223.533 C 129.905 223.713 129.915 224.046 129.928 224.533 L 129.958 224.533 C 130.345 223.84 130.788 223.35 131.288 223.063 C 131.795 222.776 132.422 222.633 133.168 222.633 C 134.268 222.633 135.075 222.906 135.588 223.453 C 136.095 224 136.348 224.903 136.348 226.163 L 136.348 232.853 ZM 140.127 227.783 C 140.127 229.123 140.337 230.113 140.757 230.753 C 141.177 231.4 141.81 231.723 142.657 231.723 C 143.25 231.723 143.747 231.563 144.147 231.243 C 144.547 230.916 144.793 230.42 144.887 229.753 L 146.577 229.863 C 146.443 230.83 146.033 231.6 145.347 232.173 C 144.653 232.753 143.773 233.043 142.707 233.043 C 141.3 233.043 140.23 232.596 139.497 231.703 C 138.757 230.816 138.387 229.523 138.387 227.823 C 138.387 226.136 138.757 224.85 139.497 223.963 C 140.237 223.076 141.3 222.633 142.687 222.633 C 143.713 222.633 144.567 222.896 145.247 223.423 C 145.92 223.956 146.343 224.69 146.517 225.623 L 144.807 225.753 C 144.72 225.2 144.5 224.76 144.147 224.433 C 143.793 224.1 143.293 223.933 142.647 223.933 C 141.76 223.933 141.12 224.23 140.727 224.823 C 140.327 225.41 140.127 226.396 140.127 227.783 ZM 156.839 227.823 C 156.839 229.583 156.452 230.893 155.679 231.753 C 154.906 232.613 153.782 233.043 152.309 233.043 C 150.842 233.043 149.736 232.593 148.989 231.693 C 148.242 230.8 147.869 229.51 147.869 227.823 C 147.869 224.363 149.369 222.633 152.369 222.633 C 153.902 222.633 155.029 223.053 155.749 223.893 C 156.476 224.74 156.839 226.05 156.839 227.823 Z M 155.089 227.823 C 155.089 226.436 154.882 225.43 154.469 224.803 C 154.056 224.176 153.366 223.863 152.399 223.863 C 151.419 223.863 150.712 224.183 150.279 224.823 C 149.839 225.463 149.619 226.463 149.619 227.823 C 149.619 229.15 149.836 230.143 150.269 230.803 C 150.696 231.47 151.369 231.803 152.289 231.803 C 153.296 231.803 154.012 231.483 154.439 230.843 C 154.872 230.196 155.089 229.19 155.089 227.823 ZM 166.958 232.853 L 165.278 232.853 L 165.278 226.493 C 165.278 225.826 165.214 225.313 165.088 224.953 C 164.954 224.586 164.748 224.323 164.468 224.163 C 164.181 224.003 163.761 223.923 163.208 223.923 C 162.408 223.923 161.774 224.196 161.308 224.743 C 160.848 225.296 160.618 226.06 160.618 227.033 L 160.618 232.853 L 158.948 232.853 L 158.948 224.953 C 158.948 223.786 158.928 223.073 158.888 222.813 L 160.468 222.813 C 160.474 222.846 160.481 222.93 160.488 223.063 C 160.494 223.203 160.501 223.36 160.508 223.533 C 160.514 223.713 160.524 224.046 160.538 224.533 L 160.568 224.533 C 160.954 223.84 161.398 223.35 161.898 223.063 C 162.404 222.776 163.031 222.633 163.778 222.633 C 164.878 222.633 165.684 222.906 166.198 223.453 C 166.704 224 166.958 224.903 166.958 226.163 L 166.958 232.853 ZM 173.326 231.543 L 173.326 232.783 C 172.773 232.93 172.209 233.003 171.636 233.003 C 170.303 233.003 169.636 232.246 169.636 230.733 L 169.636 224.033 L 168.476 224.033 L 168.476 222.813 L 169.696 222.813 L 170.186 220.573 L 171.306 220.573 L 171.306 222.813 L 173.156 222.813 L 173.156 224.033 L 171.306 224.033 L 171.306 230.363 C 171.306 230.85 171.383 231.19 171.536 231.383 C 171.696 231.576 171.969 231.673 172.356 231.673 C 172.583 231.673 172.906 231.63 173.326 231.543 ZM 176.451 232.853 L 174.781 232.853 L 174.781 225.153 C 174.781 224.446 174.761 223.666 174.721 222.813 L 176.301 222.813 C 176.347 223.953 176.371 224.636 176.371 224.863 L 176.411 224.863 C 176.677 224.003 176.984 223.416 177.331 223.103 C 177.677 222.79 178.164 222.633 178.791 222.633 C 179.017 222.633 179.244 222.663 179.471 222.723 L 179.471 224.253 C 179.251 224.193 178.954 224.163 178.581 224.163 C 177.887 224.163 177.357 224.46 176.991 225.053 C 176.631 225.653 176.451 226.51 176.451 227.623 L 176.451 232.853 ZM 183.623 233.043 C 182.616 233.043 181.859 232.776 181.353 232.243 C 180.846 231.71 180.593 230.98 180.593 230.053 C 180.593 229.013 180.933 228.213 181.613 227.653 C 182.299 227.1 183.403 226.803 184.923 226.763 L 187.173 226.733 L 187.173 226.183 C 187.173 225.363 186.999 224.78 186.653 224.433 C 186.306 224.08 185.763 223.903 185.023 223.903 C 184.276 223.903 183.733 224.03 183.393 224.283 C 183.053 224.536 182.849 224.94 182.783 225.493 L 181.033 225.343 C 181.319 223.536 182.663 222.633 185.063 222.633 C 186.323 222.633 187.273 222.92 187.913 223.493 C 188.546 224.073 188.863 224.91 188.863 226.003 L 188.863 230.333 C 188.863 230.826 188.929 231.196 189.063 231.443 C 189.189 231.696 189.436 231.823 189.803 231.823 C 189.963 231.823 190.146 231.803 190.353 231.763 L 190.353 232.793 C 189.933 232.893 189.503 232.943 189.063 232.943 C 188.443 232.943 187.993 232.783 187.713 232.463 C 187.433 232.136 187.273 231.626 187.233 230.933 L 187.173 230.933 C 186.746 231.7 186.253 232.243 185.693 232.563 C 185.126 232.883 184.436 233.043 183.623 233.043 Z M 184.003 231.783 C 184.616 231.783 185.159 231.646 185.633 231.373 C 186.113 231.093 186.489 230.71 186.763 230.223 C 187.036 229.736 187.173 229.236 187.173 228.723 L 187.173 227.903 L 185.353 227.933 C 184.566 227.946 183.969 228.026 183.563 228.173 C 183.156 228.326 182.846 228.556 182.633 228.863 C 182.413 229.17 182.303 229.576 182.303 230.083 C 182.303 230.623 182.449 231.043 182.743 231.343 C 183.036 231.636 183.456 231.783 184.003 231.783 ZM 197.991 231.243 L 197.961 231.243 C 197.648 231.883 197.238 232.343 196.731 232.623 C 196.218 232.903 195.584 233.043 194.831 233.043 C 193.564 233.043 192.631 232.616 192.031 231.763 C 191.438 230.903 191.141 229.61 191.141 227.883 C 191.141 224.383 192.371 222.633 194.831 222.633 C 195.591 222.633 196.224 222.77 196.731 223.043 C 197.238 223.323 197.648 223.766 197.961 224.373 L 197.981 224.373 L 197.961 223.253 L 197.961 219.083 L 199.631 219.083 L 199.631 230.783 C 199.631 231.83 199.648 232.52 199.681 232.853 L 198.091 232.853 C 198.071 232.753 198.051 232.523 198.031 232.163 C 198.004 231.81 197.991 231.503 197.991 231.243 Z M 192.891 227.823 C 192.891 229.23 193.078 230.236 193.451 230.843 C 193.818 231.45 194.421 231.753 195.261 231.753 C 196.208 231.753 196.894 231.423 197.321 230.763 C 197.748 230.11 197.961 229.093 197.961 227.713 C 197.961 226.386 197.748 225.413 197.321 224.793 C 196.894 224.173 196.214 223.863 195.281 223.863 C 194.434 223.863 193.824 224.173 193.451 224.793 C 193.078 225.413 192.891 226.423 192.891 227.823 ZM 204.74 233.043 C 203.733 233.043 202.976 232.776 202.47 232.243 C 201.963 231.71 201.71 230.98 201.71 230.053 C 201.71 229.013 202.05 228.213 202.73 227.653 C 203.416 227.1 204.52 226.803 206.04 226.763 L 208.29 226.733 L 208.29 226.183 C 208.29 225.363 208.116 224.78 207.77 224.433 C 207.423 224.08 206.88 223.903 206.14 223.903 C 205.393 223.903 204.85 224.03 204.51 224.283 C 204.17 224.536 203.966 224.94 203.9 225.493 L 202.15 225.343 C 202.436 223.536 203.78 222.633 206.18 222.633 C 207.44 222.633 208.39 222.92 209.03 223.493 C 209.663 224.073 209.98 224.91 209.98 226.003 L 209.98 230.333 C 209.98 230.826 210.046 231.196 210.18 231.443 C 210.306 231.696 210.553 231.823 210.92 231.823 C 211.08 231.823 211.263 231.803 211.47 231.763 L 211.47 232.793 C 211.05 232.893 210.62 232.943 210.18 232.943 C 209.56 232.943 209.11 232.783 208.83 232.463 C 208.55 232.136 208.39 231.626 208.35 230.933 L 208.29 230.933 C 207.863 231.7 207.37 232.243 206.81 232.563 C 206.243 232.883 205.553 233.043 204.74 233.043 Z M 205.12 231.783 C 205.733 231.783 206.276 231.646 206.75 231.373 C 207.23 231.093 207.606 230.71 207.88 230.223 C 208.153 229.736 208.29 229.236 208.29 228.723 L 208.29 227.903 L 206.47 227.933 C 205.683 227.946 205.086 228.026 204.68 228.173 C 204.273 228.326 203.963 228.556 203.75 228.863 C 203.53 229.17 203.42 229.576 203.42 230.083 C 203.42 230.623 203.566 231.043 203.86 231.343 C 204.153 231.636 204.573 231.783 205.12 231.783 Z" transform="matrix(1, 0, 0, 1, 129.76516723632812, 77.7530288696289)" style="fill: rgb(255, 255, 255); white-space: pre;"/>
  <path d="M 85.193 191.605 L 85.193 200.315 L 77.803 200.315 L 77.803 212.015 L 67.643 212.015 L 67.643 200.315 L 43.613 200.315 L 43.613 192.385 L 67.643 158.425 L 77.803 158.425 L 77.803 191.605 L 85.193 191.605 Z M 55.473 191.605 L 67.643 191.605 L 67.643 172.745 L 55.473 191.605 ZM 112.214 212.935 C 104.974 212.935 99.634 210.408 96.194 205.355 C 92.754 200.302 91.034 193.588 91.034 185.215 C 91.034 176.848 92.754 170.138 96.194 165.085 C 99.634 160.025 104.974 157.495 112.214 157.495 C 119.454 157.495 124.794 160.025 128.234 165.085 C 131.674 170.138 133.394 176.848 133.394 185.215 C 133.394 193.588 131.674 200.302 128.234 205.355 C 124.794 210.408 119.454 212.935 112.214 212.935 Z M 112.214 204.235 C 115.908 204.235 118.578 202.492 120.224 199.005 C 121.864 195.512 122.684 190.915 122.684 185.215 C 122.684 179.522 121.864 174.928 120.224 171.435 C 118.578 167.948 115.908 166.205 112.214 166.205 C 108.521 166.205 105.851 167.948 104.204 171.435 C 102.564 174.928 101.744 179.522 101.744 185.215 C 101.744 190.915 102.564 195.512 104.204 199.005 C 105.851 202.492 108.521 204.235 112.214 204.235 ZM 180.656 191.605 L 180.656 200.315 L 173.266 200.315 L 173.266 212.015 L 163.106 212.015 L 163.106 200.315 L 139.076 200.315 L 139.076 192.385 L 163.106 158.425 L 173.266 158.425 L 173.266 191.605 L 180.656 191.605 Z M 150.936 191.605 L 163.106 191.605 L 163.106 172.745 L 150.936 191.605 Z" transform="matrix(1, 0, 0, 1, 129.76516723632812, 77.7530288696289)" style="fill: rgb(255, 255, 255); white-space: pre;"/>
</svg>