<?xml version="1.0" encoding="utf-8"?>
<svg viewBox="6.595 7.207 393.55 125.63" xmlns="http://www.w3.org/2000/svg">
  <g transform="matrix(1, 0, 0, 1, -75.724884, -227.302505)">
    <path class="st0" d="M236.46,318.87v-12.58c4.43,2.92,12.38,5.74,20.54,5.74c5.74,0,8.66-1.41,8.66-4.23 c0-1.31-0.6-2.32-2.52-3.12c-0.91-0.4-1.81-0.71-2.62-0.91l-3.73-0.91c-1.71-0.5-3.12-0.81-4.03-1.11 c-11.58-3.12-16.31-6.75-16.31-15.6c0-9.56,8.36-15.4,22.15-15.4c7.55,0,13.89,1.51,18.83,4.63v12.08 c-6.04-3.52-12.08-5.24-18.22-5.24c-5.34,0-8.05,1.31-8.05,4.03c0,1.71,1.31,2.42,2.82,3.32c1.11,0.4,3.12,0.91,4.33,1.31 l5.34,1.11c10.87,2.52,16.41,7.15,16.41,15.91c0,4.73-2.01,8.46-6.14,11.38s-9.56,4.33-16.31,4.33 C248.64,323.6,241.59,321.99,236.46,318.87z" style="fill: rgb(60, 60, 59);"/>
    <path class="st0" d="M336.83,310.71v10.37c-1.81,1.41-4.33,2.11-7.65,2.11c-5.74,0-9.46-2.11-11.38-6.44 c-4.43,4.53-10.17,6.85-17.32,6.85c-10.87,0-18.52-6.64-18.52-16.81c0-5.34,1.91-9.46,5.84-12.28c3.93-2.82,8.56-4.23,13.99-4.23 c5.64,0,10.47,1.01,14.5,3.12v-1.51c0-6.34-4.43-9.46-13.29-9.46c-5.34,0-10.47,1.41-15.2,4.23v-11.88 c5.13-2.72,11.28-4.03,18.63-4.03c7.15,0,12.99,1.71,17.32,5.24c4.43,3.52,6.64,8.36,6.64,14.5v17.01c0,2.52,1.21,3.83,3.52,3.83 C335.12,311.32,336.13,311.12,336.83,310.71z M316.29,302.46c-2.92-1.91-6.34-2.92-10.47-2.92c-6.04,0-9.87,2.42-9.87,6.54 c0,4.43,3.73,6.54,8.96,6.54c4.93,0,8.76-1.71,11.38-5.13V302.46z" style="fill: rgb(60, 60, 59);"/>
    <path class="st0" d="M378.82,272.05h14.2v44.4c0,18.42-14.9,26.58-29.1,26.58c-8.26,0-14.8-1.41-19.73-4.33v-12.79 c5.34,3.22,11.48,4.83,18.22,4.83c7.75,0,16.41-2.92,16.41-13.59v-3.12c-3.93,4.73-9.46,7.15-16.61,7.15 c-6.85,0-12.48-2.42-16.81-7.25c-4.33-4.83-6.54-10.87-6.54-18.02s2.21-13.09,6.54-17.92c4.33-4.83,9.97-7.25,16.81-7.25 c7.15,0,12.69,2.42,16.61,7.15V272.05z M378.82,302.05v-12.08c-2.32-3.93-6.95-6.85-12.48-6.85c-7.95,0-13.29,5.54-13.29,12.89 c0,7.35,5.54,12.89,13.29,12.89C371.87,308.9,376.5,305.98,378.82,302.05z" style="fill: rgb(60, 60, 59);"/>
    <path class="st0" d="M436.1,272.05h14.2v50.24h-14.2v-6.04c-4.53,4.93-10.07,7.35-16.81,7.35c-11.68,0-18.32-7.85-18.32-20.74 v-30.81h14.2v27.89c0,7.75,4.33,10.67,9.56,10.67c4.43,0,8.96-2.82,11.38-6.54V272.05z" style="fill: rgb(60, 60, 59);"/>
    <path class="st0" d="M467.41,250.21c4.73,0,8.46,3.73,8.46,8.56c0,4.73-3.73,8.46-8.46,8.46c-4.73,0-8.46-3.73-8.46-8.46 C458.96,253.93,462.68,250.21,467.41,250.21z M460.36,322.29v-50.24h14.2v50.24H460.36z" style="fill: rgb(60, 60, 59);"/>
  </g>
  <g transform="matrix(1, 0, 0, 1, -75.724884, -227.302505)">
    <g>
      <path class="st1" d="M162.01,237.86c-6.35-2.16-13.15-3.35-20.23-3.35s-13.88,1.19-20.23,3.35 c-17.26,5.87-31.15,19.04-37.97,35.84h116.41C193.16,256.9,179.28,243.73,162.01,237.86z" style="fill: rgb(6, 73, 242);"/>
    </g>
    <g>
      <path class="st1" d="M118.16,315.25h83.08c0-19.8-16.05-35.84-35.84-35.84H82.32C82.32,299.2,98.37,315.25,118.16,315.25z" style="fill: rgb(6, 73, 242);"/>
    </g>
    <g>
      <path class="st1" d="M121.55,356.79c6.35,2.16,13.15,3.35,20.23,3.35s13.88-1.19,20.23-3.35c17.26-5.87,31.15-19.04,37.97-35.84 H83.58C90.4,337.74,104.28,350.91,121.55,356.79z" style="fill: rgb(6, 73, 242);"/>
    </g>
  </g>
  <path d="M 166.082 15.565 L 159.452 15.565 L 159.452 11.695 L 177.062 11.695 L 177.062 15.565 L 170.402 15.565 L 170.402 32.695 L 166.082 32.695 L 166.082 15.565 ZM 180.713 23.965 L 180.713 32.695 L 176.483 32.695 L 176.483 17.725 L 180.713 17.725 L 180.713 20.245 C 181.173 19.445 181.873 18.765 182.813 18.205 C 183.793 17.625 184.833 17.335 185.933 17.335 C 186.173 17.335 186.333 17.345 186.413 17.365 L 186.413 21.505 C 186.013 21.405 185.573 21.355 185.093 21.355 C 184.113 21.355 183.22 21.612 182.413 22.125 C 181.6 22.632 181.033 23.245 180.713 23.965 ZM 194.987 33.085 C 192.647 33.085 190.677 32.365 189.077 30.925 C 187.477 29.485 186.677 27.575 186.677 25.195 C 186.677 22.975 187.397 21.115 188.837 19.615 C 190.277 18.095 192.157 17.335 194.477 17.335 C 196.637 17.335 198.367 18.105 199.667 19.645 C 200.967 21.185 201.617 23.055 201.617 25.255 L 201.617 26.365 L 190.877 26.365 C 191.097 27.365 191.651 28.135 192.537 28.675 C 193.431 29.215 194.547 29.485 195.887 29.485 C 197.547 29.485 199.147 29.045 200.687 28.165 L 200.687 31.555 C 199.347 32.575 197.447 33.085 194.987 33.085 Z M 190.877 23.665 L 197.447 23.665 C 197.407 22.805 197.101 22.092 196.527 21.525 C 195.961 20.952 195.217 20.665 194.297 20.665 C 193.357 20.665 192.577 20.938 191.957 21.485 C 191.337 22.038 190.977 22.765 190.877 23.665 ZM 207.789 17.725 L 207.789 32.695 L 203.559 32.695 L 203.559 17.725 L 207.789 17.725 Z M 203.139 13.765 C 203.139 13.045 203.382 12.438 203.869 11.945 C 204.362 11.458 204.959 11.215 205.659 11.215 C 206.359 11.215 206.956 11.458 207.449 11.945 C 207.936 12.438 208.179 13.045 208.179 13.765 C 208.179 14.465 207.936 15.062 207.449 15.555 C 206.956 16.042 206.359 16.285 205.659 16.285 C 204.959 16.285 204.362 16.042 203.869 15.555 C 203.382 15.062 203.139 14.465 203.139 13.765 ZM 214.865 23.155 L 214.865 32.695 L 210.635 32.695 L 210.635 17.725 L 214.865 17.725 L 214.865 19.525 C 216.205 18.065 217.875 17.335 219.875 17.335 C 221.595 17.335 222.935 17.882 223.895 18.975 C 224.855 20.062 225.335 21.575 225.335 23.515 L 225.335 32.695 L 221.105 32.695 L 221.105 24.385 C 221.105 23.305 220.838 22.505 220.305 21.985 C 219.778 21.465 219.095 21.205 218.255 21.205 C 217.615 21.205 216.982 21.392 216.355 21.765 C 215.722 22.132 215.225 22.595 214.865 23.155 ZM 241.916 29.425 C 242.276 29.425 242.566 29.365 242.786 29.245 L 242.786 32.335 C 242.246 32.755 241.486 32.965 240.506 32.965 C 238.806 32.965 237.676 32.325 237.116 31.045 C 235.796 32.405 234.076 33.085 231.956 33.085 C 230.316 33.085 228.986 32.625 227.966 31.705 C 226.946 30.785 226.436 29.575 226.436 28.075 C 226.436 26.475 227.016 25.255 228.176 24.415 C 229.336 23.575 230.726 23.155 232.346 23.155 C 234.046 23.155 235.486 23.465 236.666 24.085 L 236.666 23.635 C 236.666 21.755 235.346 20.815 232.706 20.815 C 231.086 20.815 229.576 21.235 228.176 22.075 L 228.176 18.535 C 229.696 17.735 231.546 17.335 233.726 17.335 C 235.886 17.335 237.606 17.855 238.886 18.895 C 240.206 19.935 240.866 21.375 240.866 23.215 L 240.866 28.285 C 240.866 29.045 241.216 29.425 241.916 29.425 Z M 236.666 28.285 L 236.666 26.785 C 235.786 26.205 234.746 25.915 233.546 25.915 C 232.646 25.915 231.929 26.085 231.396 26.425 C 230.869 26.765 230.606 27.245 230.606 27.865 C 230.606 28.505 230.846 28.988 231.326 29.315 C 231.806 29.648 232.456 29.815 233.276 29.815 C 234.756 29.815 235.886 29.305 236.666 28.285 ZM 248.447 23.185 L 248.447 32.695 L 244.217 32.695 L 244.217 17.725 L 248.447 17.725 L 248.447 19.555 C 249.567 18.075 251.087 17.335 253.007 17.335 C 254.087 17.335 255.051 17.575 255.897 18.055 C 256.751 18.535 257.337 19.145 257.657 19.885 C 258.157 19.125 258.877 18.512 259.817 18.045 C 260.757 17.572 261.757 17.335 262.817 17.335 C 264.457 17.335 265.757 17.855 266.717 18.895 C 267.677 19.935 268.157 21.415 268.157 23.335 L 268.157 32.695 L 263.927 32.695 L 263.927 24.295 C 263.927 22.235 263.097 21.205 261.437 21.205 C 260.797 21.205 260.187 21.395 259.607 21.775 C 259.027 22.155 258.597 22.645 258.317 23.245 L 258.317 32.695 L 254.087 32.695 L 254.087 24.295 C 254.087 22.235 253.257 21.205 251.597 21.205 C 250.997 21.205 250.397 21.395 249.797 21.775 C 249.197 22.155 248.747 22.625 248.447 23.185 ZM 277.804 33.085 C 275.464 33.085 273.494 32.365 271.894 30.925 C 270.294 29.485 269.494 27.575 269.494 25.195 C 269.494 22.975 270.214 21.115 271.654 19.615 C 273.094 18.095 274.974 17.335 277.294 17.335 C 279.454 17.335 281.184 18.105 282.484 19.645 C 283.784 21.185 284.434 23.055 284.434 25.255 L 284.434 26.365 L 273.694 26.365 C 273.914 27.365 274.467 28.135 275.354 28.675 C 276.247 29.215 277.364 29.485 278.704 29.485 C 280.364 29.485 281.964 29.045 283.504 28.165 L 283.504 31.555 C 282.164 32.575 280.264 33.085 277.804 33.085 Z M 273.694 23.665 L 280.264 23.665 C 280.224 22.805 279.917 22.092 279.344 21.525 C 278.777 20.952 278.034 20.665 277.114 20.665 C 276.174 20.665 275.394 20.938 274.774 21.485 C 274.154 22.038 273.794 22.765 273.694 23.665 ZM 290.396 23.155 L 290.396 32.695 L 286.166 32.695 L 286.166 17.725 L 290.396 17.725 L 290.396 19.525 C 291.736 18.065 293.406 17.335 295.406 17.335 C 297.126 17.335 298.466 17.882 299.426 18.975 C 300.386 20.062 300.866 21.575 300.866 23.515 L 300.866 32.695 L 296.636 32.695 L 296.636 24.385 C 296.636 23.305 296.369 22.505 295.836 21.985 C 295.309 21.465 294.626 21.205 293.786 21.205 C 293.146 21.205 292.513 21.392 291.886 21.765 C 291.253 22.132 290.756 22.595 290.396 23.155 ZM 304.607 28.045 L 304.607 21.265 L 301.667 21.265 L 301.667 17.725 L 304.607 17.725 L 304.607 13.615 L 308.837 13.615 L 308.837 17.725 L 313.097 17.725 L 313.097 21.265 L 308.837 21.265 L 308.837 27.205 C 308.837 27.945 308.997 28.482 309.317 28.815 C 309.637 29.142 310.157 29.305 310.877 29.305 C 311.617 29.305 312.347 29.125 313.067 28.765 L 313.067 32.275 C 312.187 32.815 310.997 33.085 309.497 33.085 C 306.237 33.085 304.607 31.405 304.607 28.045 ZM 318.101 25.195 C 318.101 26.395 318.491 27.395 319.271 28.195 C 320.051 28.995 321.041 29.395 322.241 29.395 C 323.441 29.395 324.431 28.995 325.211 28.195 C 325.991 27.375 326.381 26.375 326.381 25.195 C 326.381 23.995 325.991 23.005 325.211 22.225 C 324.431 21.425 323.441 21.025 322.241 21.025 C 321.041 21.025 320.051 21.425 319.271 22.225 C 318.491 23.005 318.101 23.995 318.101 25.195 Z M 313.931 25.195 C 313.931 22.975 314.711 21.115 316.271 19.615 C 317.811 18.095 319.801 17.335 322.241 17.335 C 324.681 17.335 326.671 18.095 328.211 19.615 C 329.771 21.135 330.551 22.995 330.551 25.195 C 330.551 27.435 329.771 29.315 328.211 30.835 C 326.651 32.335 324.661 33.085 322.241 33.085 C 319.821 33.085 317.831 32.335 316.271 30.835 C 314.711 29.315 313.931 27.435 313.931 25.195 Z" transform="matrix(1, 0, 0, 1, 0, 0)" style="fill: rgb(60, 60, 59); white-space: pre;"/>
</svg>