<?xml version="1.0" encoding="utf-8"?>
<svg viewBox="158.547 9.563 241.598 106.165" xmlns="http://www.w3.org/2000/svg">
  <g transform="matrix(1, 0, 0, 1, -75.724884, -227.302505)">
    <path class="st0" d="M236.46,318.87v-12.58c4.43,2.92,12.38,5.74,20.54,5.74c5.74,0,8.66-1.41,8.66-4.23 c0-1.31-0.6-2.32-2.52-3.12c-0.91-0.4-1.81-0.71-2.62-0.91l-3.73-0.91c-1.71-0.5-3.12-0.81-4.03-1.11 c-11.58-3.12-16.31-6.75-16.31-15.6c0-9.56,8.36-15.4,22.15-15.4c7.55,0,13.89,1.51,18.83,4.63v12.08 c-6.04-3.52-12.08-5.24-18.22-5.24c-5.34,0-8.05,1.31-8.05,4.03c0,1.71,1.31,2.42,2.82,3.32c1.11,0.4,3.12,0.91,4.33,1.31 l5.34,1.11c10.87,2.52,16.41,7.15,16.41,15.91c0,4.73-2.01,8.46-6.14,11.38s-9.56,4.33-16.31,4.33 C248.64,323.6,241.59,321.99,236.46,318.87z" style="fill: rgb(255, 255, 255);"/>
    <path class="st0" d="M336.83,310.71v10.37c-1.81,1.41-4.33,2.11-7.65,2.11c-5.74,0-9.46-2.11-11.38-6.44 c-4.43,4.53-10.17,6.85-17.32,6.85c-10.87,0-18.52-6.64-18.52-16.81c0-5.34,1.91-9.46,5.84-12.28c3.93-2.82,8.56-4.23,13.99-4.23 c5.64,0,10.47,1.01,14.5,3.12v-1.51c0-6.34-4.43-9.46-13.29-9.46c-5.34,0-10.47,1.41-15.2,4.23v-11.88 c5.13-2.72,11.28-4.03,18.63-4.03c7.15,0,12.99,1.71,17.32,5.24c4.43,3.52,6.64,8.36,6.64,14.5v17.01c0,2.52,1.21,3.83,3.52,3.83 C335.12,311.32,336.13,311.12,336.83,310.71z M316.29,302.46c-2.92-1.91-6.34-2.92-10.47-2.92c-6.04,0-9.87,2.42-9.87,6.54 c0,4.43,3.73,6.54,8.96,6.54c4.93,0,8.76-1.71,11.38-5.13V302.46z" style="fill: rgb(255, 255, 255);"/>
    <path class="st0" d="M378.82,272.05h14.2v44.4c0,18.42-14.9,26.58-29.1,26.58c-8.26,0-14.8-1.41-19.73-4.33v-12.79 c5.34,3.22,11.48,4.83,18.22,4.83c7.75,0,16.41-2.92,16.41-13.59v-3.12c-3.93,4.73-9.46,7.15-16.61,7.15 c-6.85,0-12.48-2.42-16.81-7.25c-4.33-4.83-6.54-10.87-6.54-18.02s2.21-13.09,6.54-17.92c4.33-4.83,9.97-7.25,16.81-7.25 c7.15,0,12.69,2.42,16.61,7.15V272.05z M378.82,302.05v-12.08c-2.32-3.93-6.95-6.85-12.48-6.85c-7.95,0-13.29,5.54-13.29,12.89 c0,7.35,5.54,12.89,13.29,12.89C371.87,308.9,376.5,305.98,378.82,302.05z" style="fill: rgb(255, 255, 255);"/>
    <path class="st0" d="M436.1,272.05h14.2v50.24h-14.2v-6.04c-4.53,4.93-10.07,7.35-16.81,7.35c-11.68,0-18.32-7.85-18.32-20.74 v-30.81h14.2v27.89c0,7.75,4.33,10.67,9.56,10.67c4.43,0,8.96-2.82,11.38-6.54V272.05z" style="fill: rgb(255, 255, 255);"/>
    <path class="st0" d="M467.41,250.21c4.73,0,8.46,3.73,8.46,8.56c0,4.73-3.73,8.46-8.46,8.46c-4.73,0-8.46-3.73-8.46-8.46 C458.96,253.93,462.68,250.21,467.41,250.21z M460.36,322.29v-50.24h14.2v50.24H460.36z" style="fill: rgb(255, 255, 255);"/>
  </g>
  <path d="M 166.082 15.565 L 159.452 15.565 L 159.452 11.695 L 177.062 11.695 L 177.062 15.565 L 170.402 15.565 L 170.402 32.695 L 166.082 32.695 L 166.082 15.565 ZM 180.714 23.965 L 180.714 32.695 L 176.484 32.695 L 176.484 17.725 L 180.714 17.725 L 180.714 20.245 C 181.174 19.445 181.874 18.765 182.814 18.205 C 183.794 17.625 184.834 17.335 185.934 17.335 C 186.174 17.335 186.334 17.345 186.414 17.365 L 186.414 21.505 C 186.014 21.405 185.574 21.355 185.094 21.355 C 184.114 21.355 183.221 21.612 182.414 22.125 C 181.601 22.632 181.034 23.245 180.714 23.965 ZM 194.989 33.085 C 192.649 33.085 190.679 32.365 189.079 30.925 C 187.479 29.485 186.679 27.575 186.679 25.195 C 186.679 22.975 187.399 21.115 188.839 19.615 C 190.279 18.095 192.159 17.335 194.479 17.335 C 196.639 17.335 198.369 18.105 199.669 19.645 C 200.969 21.185 201.619 23.055 201.619 25.255 L 201.619 26.365 L 190.879 26.365 C 191.099 27.365 191.652 28.135 192.539 28.675 C 193.432 29.215 194.549 29.485 195.889 29.485 C 197.549 29.485 199.149 29.045 200.689 28.165 L 200.689 31.555 C 199.349 32.575 197.449 33.085 194.989 33.085 Z M 190.879 23.665 L 197.449 23.665 C 197.409 22.805 197.102 22.092 196.529 21.525 C 195.962 20.952 195.219 20.665 194.299 20.665 C 193.359 20.665 192.579 20.938 191.959 21.485 C 191.339 22.038 190.979 22.765 190.879 23.665 ZM 207.791 17.725 L 207.791 32.695 L 203.561 32.695 L 203.561 17.725 L 207.791 17.725 Z M 203.141 13.765 C 203.141 13.045 203.384 12.438 203.871 11.945 C 204.364 11.458 204.961 11.215 205.661 11.215 C 206.361 11.215 206.958 11.458 207.451 11.945 C 207.938 12.438 208.181 13.045 208.181 13.765 C 208.181 14.465 207.938 15.062 207.451 15.555 C 206.958 16.042 206.361 16.285 205.661 16.285 C 204.961 16.285 204.364 16.042 203.871 15.555 C 203.384 15.062 203.141 14.465 203.141 13.765 ZM 214.867 23.155 L 214.867 32.695 L 210.637 32.695 L 210.637 17.725 L 214.867 17.725 L 214.867 19.525 C 216.207 18.065 217.877 17.335 219.877 17.335 C 221.597 17.335 222.937 17.882 223.897 18.975 C 224.857 20.062 225.337 21.575 225.337 23.515 L 225.337 32.695 L 221.107 32.695 L 221.107 24.385 C 221.107 23.305 220.841 22.505 220.307 21.985 C 219.781 21.465 219.097 21.205 218.257 21.205 C 217.617 21.205 216.984 21.392 216.357 21.765 C 215.724 22.132 215.227 22.595 214.867 23.155 ZM 241.919 29.425 C 242.279 29.425 242.569 29.365 242.789 29.245 L 242.789 32.335 C 242.249 32.755 241.489 32.965 240.509 32.965 C 238.809 32.965 237.679 32.325 237.119 31.045 C 235.799 32.405 234.079 33.085 231.959 33.085 C 230.319 33.085 228.989 32.625 227.969 31.705 C 226.949 30.785 226.439 29.575 226.439 28.075 C 226.439 26.475 227.019 25.255 228.179 24.415 C 229.339 23.575 230.729 23.155 232.349 23.155 C 234.049 23.155 235.489 23.465 236.669 24.085 L 236.669 23.635 C 236.669 21.755 235.349 20.815 232.709 20.815 C 231.089 20.815 229.579 21.235 228.179 22.075 L 228.179 18.535 C 229.699 17.735 231.549 17.335 233.729 17.335 C 235.889 17.335 237.609 17.855 238.889 18.895 C 240.209 19.935 240.869 21.375 240.869 23.215 L 240.869 28.285 C 240.869 29.045 241.219 29.425 241.919 29.425 Z M 236.669 28.285 L 236.669 26.785 C 235.789 26.205 234.749 25.915 233.549 25.915 C 232.649 25.915 231.933 26.085 231.399 26.425 C 230.873 26.765 230.609 27.245 230.609 27.865 C 230.609 28.505 230.849 28.988 231.329 29.315 C 231.809 29.648 232.459 29.815 233.279 29.815 C 234.759 29.815 235.889 29.305 236.669 28.285 ZM 248.451 23.185 L 248.451 32.695 L 244.221 32.695 L 244.221 17.725 L 248.451 17.725 L 248.451 19.555 C 249.571 18.075 251.091 17.335 253.011 17.335 C 254.091 17.335 255.055 17.575 255.901 18.055 C 256.755 18.535 257.341 19.145 257.661 19.885 C 258.161 19.125 258.881 18.512 259.821 18.045 C 260.761 17.572 261.761 17.335 262.821 17.335 C 264.461 17.335 265.761 17.855 266.721 18.895 C 267.681 19.935 268.161 21.415 268.161 23.335 L 268.161 32.695 L 263.931 32.695 L 263.931 24.295 C 263.931 22.235 263.101 21.205 261.441 21.205 C 260.801 21.205 260.191 21.395 259.611 21.775 C 259.031 22.155 258.601 22.645 258.321 23.245 L 258.321 32.695 L 254.091 32.695 L 254.091 24.295 C 254.091 22.235 253.261 21.205 251.601 21.205 C 251.001 21.205 250.401 21.395 249.801 21.775 C 249.201 22.155 248.751 22.625 248.451 23.185 ZM 277.809 33.085 C 275.469 33.085 273.499 32.365 271.899 30.925 C 270.299 29.485 269.499 27.575 269.499 25.195 C 269.499 22.975 270.219 21.115 271.659 19.615 C 273.099 18.095 274.979 17.335 277.299 17.335 C 279.459 17.335 281.189 18.105 282.489 19.645 C 283.789 21.185 284.439 23.055 284.439 25.255 L 284.439 26.365 L 273.699 26.365 C 273.919 27.365 274.473 28.135 275.359 28.675 C 276.253 29.215 277.369 29.485 278.709 29.485 C 280.369 29.485 281.969 29.045 283.509 28.165 L 283.509 31.555 C 282.169 32.575 280.269 33.085 277.809 33.085 Z M 273.699 23.665 L 280.269 23.665 C 280.229 22.805 279.923 22.092 279.349 21.525 C 278.783 20.952 278.039 20.665 277.119 20.665 C 276.179 20.665 275.399 20.938 274.779 21.485 C 274.159 22.038 273.799 22.765 273.699 23.665 ZM 290.402 23.155 L 290.402 32.695 L 286.172 32.695 L 286.172 17.725 L 290.402 17.725 L 290.402 19.525 C 291.742 18.065 293.412 17.335 295.412 17.335 C 297.132 17.335 298.472 17.882 299.432 18.975 C 300.392 20.062 300.872 21.575 300.872 23.515 L 300.872 32.695 L 296.642 32.695 L 296.642 24.385 C 296.642 23.305 296.375 22.505 295.842 21.985 C 295.315 21.465 294.632 21.205 293.792 21.205 C 293.152 21.205 292.518 21.392 291.892 21.765 C 291.258 22.132 290.762 22.595 290.402 23.155 ZM 304.614 28.045 L 304.614 21.265 L 301.674 21.265 L 301.674 17.725 L 304.614 17.725 L 304.614 13.615 L 308.844 13.615 L 308.844 17.725 L 313.104 17.725 L 313.104 21.265 L 308.844 21.265 L 308.844 27.205 C 308.844 27.945 309.004 28.482 309.324 28.815 C 309.644 29.142 310.164 29.305 310.884 29.305 C 311.624 29.305 312.354 29.125 313.074 28.765 L 313.074 32.275 C 312.194 32.815 311.004 33.085 309.504 33.085 C 306.244 33.085 304.614 31.405 304.614 28.045 ZM 318.108 25.195 C 318.108 26.395 318.498 27.395 319.278 28.195 C 320.058 28.995 321.048 29.395 322.248 29.395 C 323.448 29.395 324.438 28.995 325.218 28.195 C 325.998 27.375 326.388 26.375 326.388 25.195 C 326.388 23.995 325.998 23.005 325.218 22.225 C 324.438 21.425 323.448 21.025 322.248 21.025 C 321.048 21.025 320.058 21.425 319.278 22.225 C 318.498 23.005 318.108 23.995 318.108 25.195 Z M 313.938 25.195 C 313.938 22.975 314.718 21.115 316.278 19.615 C 317.818 18.095 319.808 17.335 322.248 17.335 C 324.688 17.335 326.678 18.095 328.218 19.615 C 329.778 21.135 330.558 22.995 330.558 25.195 C 330.558 27.435 329.778 29.315 328.218 30.835 C 326.658 32.335 324.668 33.085 322.248 33.085 C 319.828 33.085 317.838 32.335 316.278 30.835 C 314.718 29.315 313.938 27.435 313.938 25.195 Z" transform="matrix(1, 0, 0, 1, 0, 0)" style="fill: rgb(255, 255, 255); white-space: pre;"/>
</svg>