<?xml version="1.0" encoding="utf-8"?>
<svg viewBox="181.821 199.154 541.87 216.99" xmlns="http://www.w3.org/2000/svg">
  <path class="st0" d="M345.16,303.08v-17.33c6.1,4.02,17.05,7.9,28.28,7.9c7.9,0,11.92-1.94,11.92-5.82c0-1.8-0.83-3.19-3.47-4.3 c-1.25-0.55-2.5-0.97-3.6-1.25l-5.13-1.25c-2.36-0.69-4.3-1.11-5.54-1.52c-15.94-4.3-22.46-9.29-22.46-21.49 c0-13.17,11.51-21.21,30.5-21.21c10.4,0,19.13,2.08,25.92,6.38v16.63c-8.32-4.85-16.64-7.21-25.09-7.21 c-7.35,0-11.09,1.8-11.09,5.55c0,2.36,1.8,3.33,3.88,4.57c1.52,0.55,4.3,1.25,5.96,1.8l7.35,1.52c14.97,3.47,22.6,9.84,22.6,21.9 c0,6.52-2.77,11.65-8.46,15.66c-5.68,4.02-13.17,5.96-22.46,5.96C361.93,309.6,352.23,307.38,345.16,303.08z" style="fill: rgb(255, 255, 255);" transform="matrix(1, 0, 0, 1, 48.890915, 12.214048)"/>
  <path class="st0" d="M483.37,291.85v14.28c-2.5,1.94-5.96,2.91-10.54,2.91c-7.9,0-13.03-2.91-15.66-8.87 c-6.1,6.24-14,9.43-23.84,9.43c-14.97,0-25.51-9.15-25.51-23.15c0-7.35,2.63-13.03,8.04-16.91c5.41-3.88,11.78-5.82,19.27-5.82 c7.76,0,14.42,1.39,19.96,4.3v-2.08c0-8.73-6.1-13.03-18.3-13.03c-7.35,0-14.42,1.94-20.93,5.82v-16.36 c7.07-3.74,15.53-5.54,25.65-5.54c9.84,0,17.88,2.36,23.84,7.21c6.1,4.85,9.15,11.51,9.15,19.96v23.43c0,3.47,1.66,5.27,4.85,5.27 C481.01,292.69,482.4,292.41,483.37,291.85z M455.09,280.49c-4.02-2.63-8.73-4.02-14.42-4.02c-8.32,0-13.58,3.33-13.58,9.01 c0,6.1,5.13,9.01,12.34,9.01c6.79,0,12.06-2.36,15.66-7.07V280.49z" style="fill: rgb(255, 255, 255);" transform="matrix(1, 0, 0, 1, 48.890915, 12.214048)"/>
  <path class="st0" d="M541.17,238.62h19.55v61.13c0,25.37-20.52,36.6-40.06,36.6c-11.37,0-20.38-1.94-27.17-5.96v-17.61 c7.35,4.44,15.8,6.65,25.09,6.65c10.67,0,22.6-4.02,22.6-18.71v-4.3c-5.41,6.52-13.03,9.84-22.87,9.84 c-9.43,0-17.19-3.33-23.15-9.98s-9.01-14.97-9.01-24.81c0-9.84,3.05-18.02,9.01-24.68c5.96-6.65,13.72-9.98,23.15-9.98 c9.84,0,17.47,3.33,22.87,9.84V238.62z M541.17,279.93V263.3c-3.19-5.41-9.57-9.43-17.19-9.43c-10.95,0-18.3,7.62-18.3,17.74 c0,10.12,7.62,17.74,18.3,17.74C531.61,289.36,537.98,285.34,541.17,279.93z" style="fill: rgb(255, 255, 255);" transform="matrix(1, 0, 0, 1, 48.890915, 12.214048)"/>
  <path class="st0" d="M620.05,238.62h19.55v69.17h-19.55v-8.32c-6.24,6.79-13.86,10.12-23.15,10.12 c-16.08,0-25.23-10.81-25.23-28.56v-42.42h19.55v38.4c0,10.67,5.96,14.69,13.17,14.69c6.1,0,12.34-3.88,15.67-9.01V238.62z" style="fill: rgb(255, 255, 255);" transform="matrix(1, 0, 0, 1, 48.890915, 12.214048)"/>
  <path class="st0" d="M663.16,208.54c6.52,0,11.64,5.13,11.64,11.78c0,6.52-5.13,11.64-11.64,11.64s-11.64-5.13-11.64-11.64 C651.51,213.67,656.64,208.54,663.16,208.54z M653.46,307.8v-69.17H673v69.17H653.46z" style="fill: rgb(255, 255, 255);" transform="matrix(1, 0, 0, 1, 48.890915, 12.214048)"/>
  <path class="st0" d="M348.28,360.73c0.33,0.69,0.79,1.24,1.38,1.65s1.28,0.7,2.08,0.88s1.66,0.26,2.57,0.26 c0.52,0,1.09-0.07,1.7-0.22c0.61-0.15,1.19-0.39,1.72-0.71c0.53-0.33,0.97-0.74,1.33-1.25c0.35-0.51,0.53-1.13,0.53-1.86 c0-0.56-0.13-1.04-0.38-1.45c-0.25-0.41-0.58-0.75-0.98-1.03s-0.84-0.51-1.33-0.68c-0.48-0.18-0.96-0.32-1.42-0.43l-4.44-1.09 c-0.58-0.15-1.14-0.33-1.69-0.56c-0.55-0.22-1.03-0.52-1.44-0.89c-0.41-0.37-0.74-0.83-0.99-1.37c-0.25-0.54-0.38-1.2-0.38-1.98 c0-0.48,0.09-1.05,0.28-1.7c0.19-0.65,0.53-1.26,1.05-1.84c0.51-0.58,1.21-1.06,2.11-1.46c0.89-0.4,2.04-0.6,3.43-0.6 c0.99,0,1.92,0.13,2.82,0.39c0.89,0.26,1.67,0.65,2.34,1.17c0.67,0.52,1.2,1.17,1.6,1.94c0.4,0.77,0.6,1.67,0.6,2.69h-1.9 c-0.04-0.76-0.21-1.43-0.52-2c-0.31-0.57-0.71-1.04-1.2-1.42c-0.49-0.38-1.06-0.67-1.7-0.87c-0.64-0.19-1.32-0.29-2.02-0.29 c-0.65,0-1.28,0.07-1.88,0.21c-0.6,0.14-1.13,0.36-1.59,0.67c-0.46,0.31-0.82,0.71-1.1,1.21c-0.28,0.5-0.42,1.13-0.42,1.87 c0,0.47,0.08,0.87,0.24,1.21c0.16,0.34,0.38,0.64,0.66,0.88c0.28,0.24,0.6,0.44,0.96,0.59c0.36,0.15,0.75,0.27,1.16,0.36l4.85,1.2 c0.71,0.19,1.37,0.41,2,0.68c0.62,0.27,1.17,0.6,1.65,1c0.47,0.4,0.85,0.89,1.12,1.46c0.27,0.58,0.4,1.27,0.4,2.09 c0,0.22-0.02,0.52-0.07,0.89s-0.16,0.77-0.33,1.19c-0.18,0.42-0.43,0.84-0.75,1.27c-0.33,0.43-0.77,0.81-1.34,1.16 c-0.57,0.34-1.27,0.62-2.11,0.84c-0.84,0.21-1.84,0.32-3.01,0.32s-2.26-0.13-3.26-0.4s-1.86-0.68-2.57-1.24 c-0.71-0.56-1.25-1.27-1.63-2.15c-0.38-0.87-0.54-1.92-0.49-3.15h1.9C347.78,359.19,347.94,360.05,348.28,360.73z" style="fill: rgb(255, 255, 255);" transform="matrix(1, 0, 0, 1, 48.890915, 12.214048)"/>
  <path class="st0" d="M365.94,344.8v2.82h-1.76v-2.82H365.94z M365.94,350.33v14.4h-1.76v-14.4H365.94z" style="fill: rgb(255, 255, 255);" transform="matrix(1, 0, 0, 1, 48.890915, 12.214048)"/>
  <path class="st0" d="M377.6,353.13c-0.21-0.4-0.48-0.73-0.82-0.99s-0.74-0.45-1.19-0.57c-0.45-0.12-0.92-0.18-1.42-0.18 c-0.39,0-0.79,0.04-1.19,0.12s-0.77,0.22-1.1,0.42c-0.33,0.2-0.6,0.45-0.81,0.77c-0.2,0.32-0.31,0.71-0.31,1.17 c0,0.39,0.1,0.72,0.29,0.99c0.2,0.27,0.44,0.5,0.74,0.68c0.3,0.19,0.62,0.34,0.98,0.46c0.35,0.12,0.68,0.22,0.98,0.29l2.34,0.53 c0.5,0.07,1,0.21,1.49,0.4s0.93,0.45,1.31,0.77c0.38,0.32,0.69,0.71,0.93,1.17s0.36,1.01,0.36,1.65c0,0.78-0.18,1.45-0.53,2 s-0.8,1-1.35,1.34c-0.55,0.34-1.17,0.59-1.86,0.74c-0.69,0.15-1.37,0.22-2.04,0.22c-1.69,0-3.06-0.4-4.12-1.2 c-1.05-0.8-1.65-2.08-1.8-3.85h1.76c0.07,1.19,0.51,2.09,1.3,2.69s1.77,0.91,2.94,0.91c0.43,0,0.87-0.05,1.33-0.14 c0.46-0.09,0.88-0.25,1.27-0.47c0.39-0.22,0.71-0.51,0.96-0.85c0.25-0.34,0.38-0.77,0.38-1.27c0-0.43-0.09-0.79-0.27-1.07 c-0.18-0.29-0.41-0.53-0.71-0.73s-0.64-0.36-1.02-0.49c-0.38-0.13-0.77-0.24-1.16-0.33l-2.26-0.5c-0.58-0.15-1.11-0.32-1.59-0.52 c-0.48-0.2-0.91-0.44-1.27-0.73c-0.36-0.29-0.65-0.64-0.85-1.06c-0.2-0.42-0.31-0.93-0.31-1.55c0-0.73,0.16-1.35,0.49-1.87 c0.33-0.52,0.75-0.94,1.27-1.26c0.52-0.32,1.1-0.55,1.74-0.7c0.64-0.15,1.28-0.22,1.91-0.22c0.73,0,1.4,0.09,2.02,0.28 c0.62,0.19,1.17,0.47,1.65,0.87s0.85,0.87,1.13,1.45c0.28,0.58,0.44,1.26,0.47,2.04h-1.76C377.91,354,377.8,353.53,377.6,353.13z" style="fill: rgb(255, 255, 255);" transform="matrix(1, 0, 0, 1, 48.890915, 12.214048)"/>
  <path class="st0" d="M388.45,350.33v1.48h-2.93v9.71c0,0.58,0.08,1.03,0.24,1.35c0.16,0.33,0.55,0.51,1.19,0.54 c0.5,0,1-0.03,1.51-0.08v1.48c-0.26,0-0.52,0.01-0.78,0.03c-0.26,0.02-0.52,0.03-0.78,0.03c-1.17,0-1.99-0.23-2.46-0.68 c-0.47-0.46-0.69-1.3-0.67-2.53v-9.85h-2.51v-1.48h2.51V346h1.76v4.32H388.45z" style="fill: rgb(255, 255, 255);" transform="matrix(1, 0, 0, 1, 48.890915, 12.214048)"/>
  <path class="st0" d="M392.29,359.97c0.18,0.68,0.46,1.29,0.85,1.83c0.39,0.54,0.88,0.99,1.48,1.34c0.59,0.35,1.31,0.53,2.15,0.53 c1.28,0,2.29-0.33,3.01-1c0.73-0.67,1.23-1.56,1.51-2.68h1.76c-0.37,1.64-1.06,2.9-2.05,3.79c-1,0.89-2.4,1.34-4.23,1.34 c-1.13,0-2.12-0.2-2.94-0.6c-0.83-0.4-1.5-0.95-2.02-1.65s-0.91-1.51-1.16-2.43c-0.25-0.92-0.38-1.89-0.38-2.92 c0-0.95,0.13-1.88,0.38-2.79s0.64-1.73,1.16-2.44s1.2-1.29,2.02-1.73c0.83-0.44,1.81-0.66,2.94-0.66c1.15,0,2.14,0.23,2.96,0.7 s1.48,1.07,2,1.83c0.51,0.75,0.88,1.62,1.1,2.59s0.32,1.97,0.28,2.97h-11.08C392.02,358.63,392.11,359.29,392.29,359.97z M400.99,354.6c-0.21-0.61-0.52-1.16-0.91-1.63c-0.39-0.47-0.86-0.86-1.42-1.14c-0.56-0.29-1.19-0.43-1.9-0.43 c-0.73,0-1.37,0.14-1.92,0.43c-0.56,0.29-1.03,0.67-1.42,1.14c-0.39,0.47-0.7,1.02-0.94,1.65c-0.23,0.62-0.39,1.26-0.46,1.91h9.32 C401.32,355.85,401.21,355.21,400.99,354.6z" style="fill: rgb(255, 255, 255);" transform="matrix(1, 0, 0, 1, 48.890915, 12.214048)"/>
  <path class="st0" d="M407.09,350.33v2.43h0.08c0.46-0.89,1.07-1.59,1.83-2.09c0.75-0.5,1.72-0.75,2.89-0.75 c0.95,0,1.81,0.23,2.58,0.7c0.77,0.46,1.29,1.17,1.55,2.12c0.43-0.95,1.06-1.66,1.9-2.12s1.73-0.7,2.68-0.7 c3.18,0,4.77,1.68,4.77,5.05v9.77h-1.76v-9.68c0-1.19-0.25-2.1-0.75-2.72c-0.5-0.62-1.39-0.93-2.65-0.93c-0.76,0-1.4,0.14-1.9,0.43 c-0.5,0.29-0.9,0.67-1.2,1.16c-0.3,0.48-0.51,1.04-0.63,1.66c-0.12,0.62-0.18,1.27-0.18,1.94v8.15h-1.76v-9.77 c0-0.48-0.05-0.94-0.15-1.38c-0.1-0.44-0.27-0.82-0.5-1.14c-0.23-0.33-0.54-0.58-0.93-0.77c-0.39-0.19-0.86-0.28-1.42-0.28 c-0.74,0-1.39,0.13-1.94,0.4c-0.55,0.27-1,0.64-1.34,1.12c-0.34,0.47-0.6,1.03-0.77,1.67c-0.17,0.64-0.25,1.34-0.25,2.11v8.04 h-1.76v-14.4H407.09z" style="fill: rgb(255, 255, 255);" transform="matrix(1, 0, 0, 1, 48.890915, 12.214048)"/>
  <path class="st0" d="M429.07,352.56c0.3-0.61,0.7-1.12,1.21-1.51s1.11-0.68,1.8-0.87c0.69-0.19,1.45-0.28,2.29-0.28 c0.63,0,1.26,0.06,1.9,0.18c0.63,0.12,1.2,0.35,1.7,0.68c0.5,0.33,0.91,0.8,1.23,1.41c0.32,0.6,0.47,1.39,0.47,2.36v7.64 c0,0.71,0.34,1.06,1.03,1.06c0.21,0,0.39-0.04,0.56-0.11v1.48c-0.21,0.04-0.39,0.07-0.54,0.08c-0.16,0.02-0.36,0.03-0.6,0.03 c-0.45,0-0.8-0.06-1.07-0.18c-0.27-0.12-0.48-0.29-0.63-0.52c-0.15-0.22-0.25-0.49-0.29-0.79c-0.05-0.31-0.07-0.65-0.07-1.02H438 c-0.32,0.46-0.64,0.88-0.96,1.24s-0.69,0.67-1.09,0.91c-0.4,0.24-0.86,0.43-1.37,0.56s-1.12,0.2-1.83,0.2 c-0.67,0-1.3-0.08-1.88-0.24c-0.59-0.16-1.1-0.41-1.53-0.75c-0.44-0.34-0.78-0.78-1.03-1.31s-0.38-1.16-0.38-1.88 c0-1,0.22-1.79,0.67-2.36c0.45-0.57,1.04-1,1.77-1.3c0.73-0.3,1.56-0.51,2.48-0.63s1.86-0.24,2.8-0.35 c0.37-0.04,0.7-0.08,0.98-0.14s0.51-0.15,0.7-0.29c0.19-0.14,0.33-0.33,0.43-0.57c0.1-0.24,0.15-0.56,0.15-0.95 c0-0.59-0.1-1.08-0.29-1.46c-0.2-0.38-0.46-0.68-0.81-0.91c-0.34-0.22-0.74-0.38-1.2-0.46s-0.94-0.12-1.46-0.12 c-1.12,0-2.03,0.26-2.73,0.79s-1.08,1.38-1.12,2.55h-1.76C428.6,353.9,428.78,353.17,429.07,352.56z M437.86,356.86 c-0.11,0.21-0.33,0.35-0.64,0.45c-0.32,0.09-0.6,0.16-0.84,0.2c-0.74,0.13-1.51,0.25-2.3,0.35c-0.79,0.1-1.51,0.26-2.16,0.46 c-0.65,0.21-1.19,0.5-1.6,0.88s-0.63,0.93-0.63,1.63c0,0.45,0.09,0.84,0.27,1.19c0.18,0.34,0.41,0.64,0.71,0.89 s0.64,0.44,1.03,0.57c0.39,0.13,0.79,0.2,1.2,0.2c0.67,0,1.31-0.1,1.92-0.31c0.61-0.2,1.15-0.5,1.6-0.89 c0.46-0.39,0.82-0.87,1.09-1.42c0.27-0.56,0.4-1.19,0.4-1.9v-2.29H437.86z" style="fill: rgb(255, 255, 255);" transform="matrix(1, 0, 0, 1, 48.890915, 12.214048)"/>
  <path class="st0" d="M462,364.72v-2.73h-0.06c-0.19,0.46-0.46,0.89-0.82,1.28s-0.78,0.72-1.24,0.99c-0.47,0.27-0.96,0.48-1.49,0.63 c-0.53,0.15-1.06,0.22-1.58,0.22c-1.1,0-2.05-0.2-2.86-0.6c-0.81-0.4-1.48-0.95-2.02-1.65s-0.94-1.51-1.2-2.43 c-0.26-0.92-0.39-1.89-0.39-2.92c0-1.02,0.13-2,0.39-2.92c0.26-0.92,0.66-1.73,1.2-2.43s1.21-1.25,2.02-1.66 c0.81-0.41,1.76-0.61,2.86-0.61c0.54,0,1.06,0.07,1.58,0.2c0.51,0.13,0.99,0.33,1.44,0.6c0.45,0.27,0.84,0.6,1.19,0.99 c0.34,0.39,0.61,0.85,0.79,1.37h0.06v-8.26h1.76v19.92H462z M452.36,359.74c0.18,0.74,0.46,1.39,0.84,1.97 c0.38,0.58,0.87,1.05,1.46,1.41c0.59,0.36,1.31,0.54,2.15,0.54c0.93,0,1.72-0.18,2.36-0.54c0.64-0.36,1.16-0.83,1.56-1.41 c0.4-0.58,0.69-1.23,0.87-1.97c0.18-0.73,0.26-1.47,0.26-2.22s-0.09-1.48-0.26-2.22c-0.18-0.74-0.47-1.39-0.87-1.97 c-0.4-0.58-0.92-1.05-1.56-1.41c-0.64-0.36-1.43-0.54-2.36-0.54c-0.84,0-1.55,0.18-2.15,0.54c-0.6,0.36-1.08,0.83-1.46,1.41 c-0.38,0.58-0.66,1.23-0.84,1.97c-0.18,0.73-0.26,1.47-0.26,2.22S452.18,359.01,452.36,359.74z" style="fill: rgb(255, 255, 255);" transform="matrix(1, 0, 0, 1, 48.890915, 12.214048)"/>
  <path class="st0" d="M468.26,359.97c0.18,0.68,0.46,1.29,0.85,1.83c0.39,0.54,0.88,0.99,1.48,1.34c0.6,0.35,1.31,0.53,2.15,0.53 c1.28,0,2.29-0.33,3.01-1c0.73-0.67,1.23-1.56,1.51-2.68h1.76c-0.37,1.64-1.06,2.9-2.05,3.79c-1,0.89-2.4,1.34-4.23,1.34 c-1.13,0-2.12-0.2-2.94-0.6c-0.83-0.4-1.5-0.95-2.02-1.65c-0.52-0.7-0.91-1.51-1.16-2.43c-0.25-0.92-0.38-1.89-0.38-2.92 c0-0.95,0.13-1.88,0.38-2.79s0.64-1.73,1.16-2.44c0.52-0.72,1.19-1.29,2.02-1.73c0.83-0.44,1.81-0.66,2.94-0.66 c1.15,0,2.14,0.23,2.96,0.7c0.82,0.46,1.48,1.07,1.99,1.83s0.88,1.62,1.1,2.59c0.22,0.98,0.32,1.97,0.28,2.97h-11.08 C467.99,358.63,468.08,359.29,468.26,359.97z M476.96,354.6c-0.21-0.61-0.52-1.16-0.91-1.63c-0.39-0.47-0.87-0.86-1.42-1.14 c-0.56-0.29-1.19-0.43-1.9-0.43c-0.73,0-1.37,0.14-1.92,0.43c-0.56,0.29-1.03,0.67-1.42,1.14c-0.39,0.47-0.7,1.02-0.93,1.65 c-0.23,0.62-0.39,1.26-0.46,1.91h9.32C477.29,355.85,477.18,355.21,476.96,354.6z" style="fill: rgb(255, 255, 255);" transform="matrix(1, 0, 0, 1, 48.890915, 12.214048)"/>
  <path class="st0" d="M497.49,344.8l7.81,19.92h-2.04l-2.43-6.19h-9.07l-2.4,6.19h-2.01l8.01-19.92H497.49z M500.19,356.91 l-3.85-10.21l-3.99,10.21H500.19z" style="fill: rgb(255, 255, 255);" transform="matrix(1, 0, 0, 1, 48.890915, 12.214048)"/>
  <path class="st0" d="M508.39,350.33v2.73h0.06c0.41-1,1.07-1.78,2-2.33c0.92-0.55,1.97-0.82,3.14-0.82c1.1,0,2.05,0.21,2.86,0.61 c0.81,0.41,1.48,0.96,2.02,1.66c0.54,0.7,0.94,1.51,1.2,2.43c0.26,0.92,0.39,1.89,0.39,2.92c0,1.02-0.13,2-0.39,2.92 c-0.26,0.92-0.66,1.73-1.2,2.43c-0.54,0.7-1.21,1.25-2.02,1.65c-0.81,0.4-1.76,0.6-2.86,0.6c-0.52,0-1.04-0.07-1.56-0.2 s-1-0.33-1.45-0.59c-0.45-0.26-0.84-0.59-1.19-0.98c-0.34-0.39-0.61-0.85-0.79-1.37h-0.06v8.04h-1.76v-19.7H508.39z M518.03,355.31 c-0.18-0.74-0.46-1.39-0.84-1.97c-0.38-0.58-0.87-1.05-1.46-1.41c-0.6-0.36-1.31-0.54-2.15-0.54c-0.97,0-1.78,0.17-2.43,0.5 c-0.65,0.33-1.17,0.78-1.56,1.34c-0.39,0.56-0.67,1.21-0.82,1.95s-0.24,1.53-0.24,2.34c0,0.74,0.09,1.48,0.27,2.22 c0.18,0.74,0.46,1.39,0.86,1.97c0.4,0.58,0.92,1.05,1.56,1.41c0.64,0.36,1.43,0.54,2.36,0.54c0.84,0,1.55-0.18,2.15-0.54 c0.6-0.36,1.08-0.83,1.46-1.41c0.38-0.58,0.66-1.23,0.84-1.97c0.18-0.73,0.27-1.47,0.27-2.22S518.21,356.04,518.03,355.31z" style="fill: rgb(255, 255, 255);" transform="matrix(1, 0, 0, 1, 48.890915, 12.214048)"/>
  <path class="st0" d="M531.79,350.52c0.85,0.41,1.56,0.96,2.13,1.65c0.58,0.69,1.01,1.49,1.31,2.41c0.3,0.92,0.45,1.9,0.45,2.94 s-0.15,2.02-0.45,2.94c-0.3,0.92-0.73,1.73-1.31,2.41c-0.58,0.69-1.29,1.23-2.13,1.63c-0.85,0.4-1.82,0.6-2.92,0.6 s-2.07-0.2-2.92-0.6c-0.85-0.4-1.56-0.94-2.13-1.63c-0.58-0.69-1.01-1.49-1.31-2.41c-0.3-0.92-0.45-1.9-0.45-2.94 s0.15-2.02,0.45-2.94c0.3-0.92,0.73-1.73,1.31-2.41c0.58-0.69,1.29-1.24,2.13-1.65c0.85-0.41,1.82-0.61,2.92-0.61 S530.94,350.11,531.79,350.52z M526.67,351.92c-0.63,0.35-1.16,0.82-1.58,1.4c-0.42,0.58-0.73,1.23-0.95,1.97 c-0.21,0.74-0.32,1.48-0.32,2.25s0.11,1.51,0.32,2.25s0.53,1.39,0.95,1.97c0.42,0.58,0.94,1.04,1.58,1.4 c0.63,0.35,1.37,0.53,2.2,0.53c0.84,0,1.57-0.18,2.21-0.53c0.63-0.35,1.16-0.82,1.58-1.4c0.42-0.58,0.73-1.23,0.95-1.97 s0.32-1.48,0.32-2.25s-0.11-1.51-0.32-2.25c-0.21-0.73-0.53-1.39-0.95-1.97c-0.42-0.58-0.94-1.04-1.58-1.4 c-0.63-0.35-1.37-0.53-2.21-0.53C528.04,351.39,527.3,351.56,526.67,351.92z" style="fill: rgb(255, 255, 255);" transform="matrix(1, 0, 0, 1, 48.890915, 12.214048)"/>
  <path class="st0" d="M540.09,344.8v2.82h-1.76v-2.82H540.09z M540.09,350.33v14.4h-1.76v-14.4H540.09z" style="fill: rgb(255, 255, 255);" transform="matrix(1, 0, 0, 1, 48.890915, 12.214048)"/>
  <path class="st0" d="M552.46,350.52c0.85,0.41,1.56,0.96,2.13,1.65c0.58,0.69,1.01,1.49,1.31,2.41c0.3,0.92,0.45,1.9,0.45,2.94 s-0.15,2.02-0.45,2.94c-0.3,0.92-0.73,1.73-1.31,2.41c-0.58,0.69-1.29,1.23-2.13,1.63c-0.85,0.4-1.82,0.6-2.92,0.6 s-2.07-0.2-2.92-0.6c-0.85-0.4-1.56-0.94-2.13-1.63c-0.58-0.69-1.01-1.49-1.31-2.41c-0.3-0.92-0.45-1.9-0.45-2.94 s0.15-2.02,0.45-2.94c0.3-0.92,0.73-1.73,1.31-2.41c0.58-0.69,1.29-1.24,2.13-1.65c0.85-0.41,1.82-0.61,2.92-0.61 S551.62,350.11,552.46,350.52z M547.34,351.92c-0.63,0.35-1.16,0.82-1.58,1.4c-0.42,0.58-0.73,1.23-0.95,1.97 c-0.21,0.74-0.32,1.48-0.32,2.25s0.11,1.51,0.32,2.25s0.53,1.39,0.95,1.97c0.42,0.58,0.94,1.04,1.58,1.4 c0.63,0.35,1.37,0.53,2.2,0.53c0.84,0,1.57-0.18,2.21-0.53c0.63-0.35,1.16-0.82,1.58-1.4c0.42-0.58,0.73-1.23,0.95-1.97 s0.32-1.48,0.32-2.25s-0.11-1.51-0.32-2.25c-0.21-0.73-0.53-1.39-0.95-1.97c-0.42-0.58-0.94-1.04-1.58-1.4 c-0.63-0.35-1.37-0.53-2.21-0.53C548.71,351.39,547.97,351.56,547.34,351.92z" style="fill: rgb(255, 255, 255);" transform="matrix(1, 0, 0, 1, 48.890915, 12.214048)"/>
  <path class="st0" d="M567.1,352.56c0.3-0.61,0.7-1.12,1.21-1.51s1.11-0.68,1.8-0.87c0.69-0.19,1.45-0.28,2.29-0.28 c0.63,0,1.26,0.06,1.9,0.18c0.63,0.12,1.2,0.35,1.7,0.68c0.5,0.33,0.91,0.8,1.23,1.41c0.32,0.6,0.47,1.39,0.47,2.36v7.64 c0,0.71,0.34,1.06,1.03,1.06c0.21,0,0.39-0.04,0.56-0.11v1.48c-0.21,0.04-0.39,0.07-0.54,0.08c-0.16,0.02-0.36,0.03-0.6,0.03 c-0.45,0-0.8-0.06-1.07-0.18c-0.27-0.12-0.48-0.29-0.63-0.52c-0.15-0.22-0.25-0.49-0.29-0.79c-0.05-0.31-0.07-0.65-0.07-1.02h-0.06 c-0.32,0.46-0.64,0.88-0.96,1.24s-0.69,0.67-1.09,0.91c-0.4,0.24-0.86,0.43-1.37,0.56s-1.12,0.2-1.83,0.2 c-0.67,0-1.3-0.08-1.88-0.24c-0.59-0.16-1.1-0.41-1.53-0.75c-0.44-0.34-0.78-0.78-1.03-1.31s-0.38-1.16-0.38-1.88 c0-1,0.22-1.79,0.67-2.36c0.45-0.57,1.04-1,1.77-1.3c0.73-0.3,1.56-0.51,2.48-0.63s1.86-0.24,2.8-0.35 c0.37-0.04,0.7-0.08,0.98-0.14s0.51-0.15,0.7-0.29c0.19-0.14,0.33-0.33,0.43-0.57c0.1-0.24,0.15-0.56,0.15-0.95 c0-0.59-0.1-1.08-0.29-1.46c-0.2-0.38-0.46-0.68-0.81-0.91c-0.34-0.22-0.74-0.38-1.2-0.46s-0.94-0.12-1.46-0.12 c-1.12,0-2.03,0.26-2.73,0.79s-1.08,1.38-1.12,2.55h-1.76C566.62,353.9,566.8,353.17,567.1,352.56z M575.88,356.86 c-0.11,0.21-0.33,0.35-0.64,0.45c-0.32,0.09-0.6,0.16-0.84,0.2c-0.74,0.13-1.51,0.25-2.3,0.35c-0.79,0.1-1.51,0.26-2.16,0.46 c-0.65,0.21-1.19,0.5-1.6,0.88s-0.63,0.93-0.63,1.63c0,0.45,0.09,0.84,0.27,1.19c0.18,0.34,0.41,0.64,0.71,0.89 s0.64,0.44,1.03,0.57c0.39,0.13,0.79,0.2,1.2,0.2c0.67,0,1.31-0.1,1.92-0.31c0.61-0.2,1.15-0.5,1.6-0.89 c0.46-0.39,0.82-0.87,1.09-1.42c0.27-0.56,0.4-1.19,0.4-1.9v-2.29H575.88z" style="fill: rgb(255, 255, 255);" transform="matrix(1, 0, 0, 1, 48.890915, 12.214048)"/>
  <path class="st0" d="M604.96,364.72l-0.25-3.63h-0.06c-0.33,0.71-0.75,1.32-1.24,1.83c-0.49,0.51-1.04,0.93-1.63,1.26 c-0.6,0.33-1.23,0.56-1.91,0.71c-0.68,0.15-1.38,0.22-2.11,0.22c-1.56,0-2.93-0.28-4.12-0.85c-1.18-0.57-2.16-1.33-2.94-2.27 c-0.78-0.95-1.37-2.05-1.76-3.29s-0.59-2.56-0.59-3.93c0-1.38,0.2-2.69,0.59-3.93s0.98-2.35,1.76-3.31s1.76-1.72,2.94-2.29 c1.18-0.57,2.55-0.85,4.12-0.85c1.04,0,2.03,0.14,2.96,0.42s1.76,0.7,2.48,1.26c0.73,0.56,1.34,1.25,1.84,2.06 c0.5,0.82,0.85,1.78,1.03,2.87h-1.9c-0.06-0.58-0.25-1.16-0.57-1.74s-0.76-1.12-1.31-1.6c-0.55-0.48-1.2-0.88-1.97-1.19 s-1.62-0.46-2.57-0.46c-1.32,0-2.46,0.25-3.4,0.75c-0.95,0.5-1.73,1.17-2.33,2c-0.61,0.83-1.05,1.76-1.34,2.8s-0.43,2.11-0.43,3.21 c0,1.08,0.14,2.14,0.43,3.2s0.73,1.99,1.34,2.82c0.6,0.83,1.38,1.49,2.33,2c0.95,0.5,2.08,0.75,3.4,0.75c1.1,0,2.08-0.18,2.94-0.54 c0.87-0.36,1.59-0.87,2.19-1.52c0.59-0.65,1.04-1.42,1.34-2.32c0.3-0.89,0.44-1.87,0.42-2.93h-6.78v-1.62h8.45v10.13H604.96z" style="fill: rgb(255, 255, 255);" transform="matrix(1, 0, 0, 1, 48.890915, 12.214048)"/>
  <path class="st0" d="M610.94,359.97c0.18,0.68,0.46,1.29,0.85,1.83c0.39,0.54,0.88,0.99,1.48,1.34c0.6,0.35,1.31,0.53,2.15,0.53 c1.28,0,2.29-0.33,3.01-1c0.73-0.67,1.23-1.56,1.51-2.68h1.76c-0.37,1.64-1.06,2.9-2.05,3.79c-1,0.89-2.4,1.34-4.23,1.34 c-1.13,0-2.12-0.2-2.94-0.6c-0.83-0.4-1.5-0.95-2.02-1.65c-0.52-0.7-0.91-1.51-1.16-2.43c-0.25-0.92-0.38-1.89-0.38-2.92 c0-0.95,0.13-1.88,0.38-2.79s0.64-1.73,1.16-2.44c0.52-0.72,1.19-1.29,2.02-1.73c0.83-0.44,1.81-0.66,2.94-0.66 c1.15,0,2.14,0.23,2.96,0.7c0.82,0.46,1.48,1.07,1.99,1.83s0.88,1.62,1.1,2.59c0.22,0.98,0.32,1.97,0.28,2.97h-11.08 C610.68,358.63,610.76,359.29,610.94,359.97z M619.65,354.6c-0.21-0.61-0.52-1.16-0.91-1.63c-0.39-0.47-0.87-0.86-1.42-1.14 c-0.56-0.29-1.19-0.43-1.9-0.43c-0.73,0-1.37,0.14-1.92,0.43c-0.56,0.29-1.03,0.67-1.42,1.14c-0.39,0.47-0.7,1.02-0.93,1.65 c-0.23,0.62-0.39,1.26-0.46,1.91H620C619.98,355.85,619.86,355.21,619.65,354.6z" style="fill: rgb(255, 255, 255);" transform="matrix(1, 0, 0, 1, 48.890915, 12.214048)"/>
  <path class="st0" d="M632.41,353.13c-0.21-0.4-0.48-0.73-0.82-0.99c-0.34-0.26-0.74-0.45-1.19-0.57c-0.45-0.12-0.92-0.18-1.42-0.18 c-0.39,0-0.79,0.04-1.19,0.12s-0.77,0.22-1.1,0.42c-0.33,0.2-0.61,0.45-0.81,0.77c-0.21,0.32-0.31,0.71-0.31,1.17 c0,0.39,0.1,0.72,0.29,0.99c0.2,0.27,0.44,0.5,0.74,0.68c0.3,0.19,0.62,0.34,0.98,0.46c0.35,0.12,0.68,0.22,0.98,0.29l2.34,0.53 c0.5,0.07,1,0.21,1.49,0.4s0.93,0.45,1.31,0.77c0.38,0.32,0.69,0.71,0.93,1.17c0.24,0.46,0.36,1.01,0.36,1.65 c0,0.78-0.18,1.45-0.53,2c-0.35,0.55-0.8,1-1.35,1.34c-0.55,0.34-1.17,0.59-1.86,0.74c-0.69,0.15-1.37,0.22-2.04,0.22 c-1.69,0-3.07-0.4-4.12-1.2c-1.05-0.8-1.65-2.08-1.8-3.85h1.76c0.07,1.19,0.51,2.09,1.3,2.69c0.79,0.6,1.77,0.91,2.94,0.91 c0.43,0,0.87-0.05,1.33-0.14c0.46-0.09,0.88-0.25,1.27-0.47c0.39-0.22,0.71-0.51,0.96-0.85c0.25-0.34,0.38-0.77,0.38-1.27 c0-0.43-0.09-0.79-0.27-1.07c-0.18-0.29-0.41-0.53-0.71-0.73c-0.3-0.2-0.64-0.36-1.02-0.49c-0.38-0.13-0.77-0.24-1.16-0.33 l-2.26-0.5c-0.58-0.15-1.11-0.32-1.59-0.52c-0.48-0.2-0.91-0.44-1.27-0.73c-0.36-0.29-0.65-0.64-0.85-1.06 c-0.21-0.42-0.31-0.93-0.31-1.55c0-0.73,0.16-1.35,0.49-1.87c0.33-0.52,0.75-0.94,1.27-1.26c0.52-0.32,1.1-0.55,1.74-0.7 c0.64-0.15,1.28-0.22,1.91-0.22c0.72,0,1.4,0.09,2.02,0.28c0.62,0.19,1.17,0.47,1.65,0.87c0.47,0.39,0.85,0.87,1.13,1.45 c0.28,0.58,0.44,1.26,0.47,2.04h-1.76C632.73,354,632.62,353.53,632.41,353.13z" style="fill: rgb(255, 255, 255);" transform="matrix(1, 0, 0, 1, 48.890915, 12.214048)"/>
  <path class="st0" d="M643.26,350.33v1.48h-2.93v9.71c0,0.58,0.08,1.03,0.24,1.35c0.16,0.33,0.55,0.51,1.19,0.54 c0.5,0,1-0.03,1.51-0.08v1.48c-0.26,0-0.52,0.01-0.78,0.03s-0.52,0.03-0.78,0.03c-1.17,0-1.99-0.23-2.46-0.68s-0.69-1.3-0.67-2.53 v-9.85h-2.51v-1.48h2.51V346h1.76v4.32H643.26z" style="fill: rgb(255, 255, 255);" transform="matrix(1, 0, 0, 1, 48.890915, 12.214048)"/>
  <path class="st0" d="M646.17,352.56c0.3-0.61,0.7-1.12,1.21-1.51s1.11-0.68,1.8-0.87c0.69-0.19,1.45-0.28,2.29-0.28 c0.63,0,1.26,0.06,1.9,0.18c0.63,0.12,1.2,0.35,1.7,0.68c0.5,0.33,0.91,0.8,1.23,1.41c0.32,0.6,0.47,1.39,0.47,2.36v7.64 c0,0.71,0.34,1.06,1.03,1.06c0.21,0,0.39-0.04,0.56-0.11v1.48c-0.21,0.04-0.39,0.07-0.54,0.08c-0.16,0.02-0.36,0.03-0.6,0.03 c-0.45,0-0.8-0.06-1.07-0.18c-0.27-0.12-0.48-0.29-0.63-0.52c-0.15-0.22-0.25-0.49-0.29-0.79c-0.05-0.31-0.07-0.65-0.07-1.02h-0.06 c-0.32,0.46-0.64,0.88-0.96,1.24s-0.69,0.67-1.09,0.91c-0.4,0.24-0.86,0.43-1.37,0.56s-1.12,0.2-1.83,0.2 c-0.67,0-1.3-0.08-1.88-0.24c-0.59-0.16-1.1-0.41-1.53-0.75c-0.44-0.34-0.78-0.78-1.03-1.31s-0.38-1.16-0.38-1.88 c0-1,0.22-1.79,0.67-2.36c0.45-0.57,1.04-1,1.77-1.3c0.73-0.3,1.56-0.51,2.48-0.63s1.86-0.24,2.8-0.35 c0.37-0.04,0.7-0.08,0.98-0.14s0.51-0.15,0.7-0.29c0.19-0.14,0.33-0.33,0.43-0.57c0.1-0.24,0.15-0.56,0.15-0.95 c0-0.59-0.1-1.08-0.29-1.46c-0.2-0.38-0.46-0.68-0.81-0.91c-0.34-0.22-0.74-0.38-1.2-0.46s-0.94-0.12-1.46-0.12 c-1.12,0-2.03,0.26-2.73,0.79s-1.08,1.38-1.12,2.55h-1.76C645.69,353.9,645.87,353.17,646.17,352.56z M654.95,356.86 c-0.11,0.21-0.33,0.35-0.64,0.45c-0.32,0.09-0.6,0.16-0.84,0.2c-0.74,0.13-1.51,0.25-2.3,0.35c-0.79,0.1-1.51,0.26-2.16,0.46 c-0.65,0.21-1.19,0.5-1.6,0.88s-0.63,0.93-0.63,1.63c0,0.45,0.09,0.84,0.27,1.19c0.18,0.34,0.41,0.64,0.71,0.89 s0.64,0.44,1.03,0.57c0.39,0.13,0.79,0.2,1.2,0.2c0.67,0,1.31-0.1,1.92-0.31c0.61-0.2,1.15-0.5,1.6-0.89 c0.46-0.39,0.82-0.87,1.09-1.42c0.27-0.56,0.4-1.19,0.4-1.9v-2.29H654.95z M655.47,345.92c-0.12,0.32-0.28,0.6-0.47,0.85 s-0.43,0.46-0.71,0.61c-0.28,0.16-0.6,0.24-0.98,0.24c-0.37,0-0.74-0.07-1.09-0.2s-0.69-0.28-1-0.45 c-0.32-0.17-0.61-0.32-0.89-0.45c-0.28-0.13-0.54-0.2-0.78-0.2c-0.43,0-0.78,0.12-1.06,0.36s-0.42,0.6-0.42,1.06h-1.09 c0.04-0.33,0.12-0.66,0.25-0.98c0.13-0.32,0.3-0.6,0.5-0.85c0.2-0.25,0.46-0.46,0.75-0.61c0.3-0.16,0.62-0.24,0.98-0.24 c0.39,0,0.76,0.07,1.12,0.2c0.35,0.13,0.68,0.27,0.99,0.42c0.31,0.15,0.59,0.29,0.87,0.42c0.27,0.13,0.53,0.2,0.79,0.2 c0.43,0,0.75-0.13,0.96-0.39s0.38-0.58,0.49-0.95h1.06C655.68,345.29,655.59,345.6,655.47,345.92z" style="fill: rgb(255, 255, 255);" transform="matrix(1, 0, 0, 1, 48.890915, 12.214048)"/>
  <path class="st0" d="M669.28,350.52c0.85,0.41,1.56,0.96,2.13,1.65c0.58,0.69,1.01,1.49,1.31,2.41c0.3,0.92,0.45,1.9,0.45,2.94 s-0.15,2.02-0.45,2.94c-0.3,0.92-0.73,1.73-1.31,2.41c-0.58,0.69-1.29,1.23-2.13,1.63c-0.85,0.4-1.82,0.6-2.92,0.6 s-2.07-0.2-2.92-0.6c-0.85-0.4-1.56-0.94-2.13-1.63c-0.58-0.69-1.01-1.49-1.31-2.41c-0.3-0.92-0.45-1.9-0.45-2.94 s0.15-2.02,0.45-2.94c0.3-0.92,0.73-1.73,1.31-2.41c0.58-0.69,1.29-1.24,2.13-1.65c0.85-0.41,1.82-0.61,2.92-0.61 S668.43,350.11,669.28,350.52z M664.16,351.92c-0.63,0.35-1.16,0.82-1.58,1.4c-0.42,0.58-0.73,1.23-0.95,1.97 c-0.21,0.74-0.32,1.48-0.32,2.25s0.11,1.51,0.32,2.25s0.53,1.39,0.95,1.97c0.42,0.58,0.94,1.04,1.58,1.4 c0.63,0.35,1.37,0.53,2.2,0.53c0.84,0,1.57-0.18,2.21-0.53c0.63-0.35,1.16-0.82,1.58-1.4c0.42-0.58,0.73-1.23,0.95-1.97 s0.32-1.48,0.32-2.25s-0.11-1.51-0.32-2.25c-0.21-0.73-0.53-1.39-0.95-1.97c-0.42-0.58-0.94-1.04-1.58-1.4 c-0.63-0.35-1.37-0.53-2.21-0.53C665.53,351.39,664.79,351.56,664.16,351.92z" style="fill: rgb(255, 255, 255);" transform="matrix(1, 0, 0, 1, 48.890915, 12.214048)"/>
  <path class="st0" d="M348.61,378.28v12.33c0,1.15,0.13,2.13,0.39,2.94c0.26,0.81,0.64,1.47,1.14,1.98c0.5,0.51,1.12,0.88,1.84,1.12 c0.73,0.23,1.54,0.35,2.46,0.35c0.93,0,1.76-0.12,2.48-0.35c0.73-0.23,1.34-0.6,1.84-1.12c0.5-0.51,0.88-1.17,1.14-1.98 c0.26-0.81,0.39-1.79,0.39-2.94v-12.33h1.9v12.75c0,1.02-0.14,1.99-0.43,2.92c-0.29,0.92-0.74,1.73-1.37,2.41 c-0.62,0.69-1.42,1.23-2.4,1.63c-0.98,0.4-2.16,0.6-3.56,0.6c-1.38,0-2.55-0.2-3.53-0.6c-0.98-0.4-1.78-0.94-2.4-1.63 c-0.62-0.69-1.08-1.49-1.37-2.41c-0.29-0.92-0.43-1.89-0.43-2.92v-12.75H348.61z" style="fill: rgb(255, 255, 255);" transform="matrix(1, 0, 0, 1, 48.890915, 12.214048)"/>
  <path class="st0" d="M367.42,383.81v2.48h0.06c0.33-0.87,0.93-1.58,1.79-2.11c0.86-0.53,1.79-0.8,2.82-0.8c1,0,1.85,0.13,2.53,0.39 c0.68,0.26,1.22,0.63,1.63,1.1s0.7,1.06,0.87,1.74c0.17,0.69,0.25,1.46,0.25,2.32v9.26h-1.76v-8.98c0-0.61-0.06-1.19-0.17-1.72 c-0.11-0.53-0.31-0.99-0.59-1.38c-0.28-0.39-0.66-0.7-1.13-0.92c-0.47-0.22-1.06-0.33-1.77-0.33c-0.71,0-1.33,0.12-1.88,0.38 c-0.55,0.25-1.01,0.6-1.4,1.03c-0.38,0.44-0.68,0.96-0.89,1.56c-0.21,0.6-0.33,1.26-0.35,1.97v8.4h-1.76v-14.4H367.42z" style="fill: rgb(255, 255, 255);" transform="matrix(1, 0, 0, 1, 48.890915, 12.214048)"/>
  <path class="st0" d="M382.45,378.28v2.82h-1.76v-2.82H382.45z M382.45,383.81v14.4h-1.76v-14.4H382.45z" style="fill: rgb(255, 255, 255);" transform="matrix(1, 0, 0, 1, 48.890915, 12.214048)"/>
  <path class="st0" d="M386.16,383.81l4.52,12.64h0.06l4.46-12.64h1.81l-5.38,14.4h-1.87l-5.55-14.4H386.16z" style="fill: rgb(255, 255, 255);" transform="matrix(1, 0, 0, 1, 48.890915, 12.214048)"/>
  <path class="st0" d="M400.04,393.45c0.18,0.68,0.46,1.29,0.85,1.83c0.39,0.54,0.88,0.99,1.48,1.34c0.59,0.35,1.31,0.53,2.15,0.53 c1.28,0,2.29-0.33,3.01-1c0.73-0.67,1.23-1.56,1.51-2.68h1.76c-0.37,1.64-1.06,2.9-2.05,3.79c-1,0.89-2.4,1.34-4.23,1.34 c-1.13,0-2.12-0.2-2.94-0.6c-0.83-0.4-1.5-0.95-2.02-1.65s-0.91-1.51-1.16-2.43c-0.25-0.92-0.38-1.89-0.38-2.92 c0-0.95,0.13-1.88,0.38-2.79s0.64-1.73,1.16-2.44s1.2-1.29,2.02-1.73c0.83-0.44,1.81-0.66,2.94-0.66c1.15,0,2.14,0.23,2.96,0.7 s1.48,1.07,2,1.83c0.51,0.75,0.88,1.62,1.1,2.59s0.32,1.97,0.28,2.97h-11.08C399.78,392.11,399.87,392.77,400.04,393.45z M408.75,388.08c-0.21-0.61-0.52-1.16-0.91-1.63c-0.39-0.47-0.86-0.86-1.42-1.14c-0.56-0.29-1.19-0.43-1.9-0.43 c-0.73,0-1.37,0.14-1.92,0.43c-0.56,0.29-1.03,0.67-1.42,1.14c-0.39,0.47-0.7,1.02-0.94,1.65c-0.23,0.62-0.39,1.26-0.46,1.91h9.32 C409.08,389.33,408.96,388.69,408.75,388.08z" style="fill: rgb(255, 255, 255);" transform="matrix(1, 0, 0, 1, 48.890915, 12.214048)"/>
  <path class="st0" d="M414.85,383.81v3.38h0.06c0.45-1.17,1.14-2.07,2.08-2.71c0.94-0.63,2.06-0.92,3.36-0.87v1.76 c-0.8-0.04-1.53,0.07-2.18,0.32c-0.65,0.25-1.21,0.61-1.69,1.07c-0.47,0.47-0.84,1.02-1.1,1.66c-0.26,0.64-0.39,1.34-0.39,2.11 v7.67h-1.76v-14.4H414.85z" style="fill: rgb(255, 255, 255);" transform="matrix(1, 0, 0, 1, 48.890915, 12.214048)"/>
  <path class="st0" d="M430.3,386.61c-0.21-0.4-0.48-0.73-0.82-0.99s-0.74-0.45-1.19-0.57c-0.45-0.12-0.92-0.18-1.42-0.18 c-0.39,0-0.79,0.04-1.19,0.12s-0.77,0.22-1.1,0.42s-0.61,0.45-0.81,0.77c-0.21,0.32-0.31,0.71-0.31,1.17c0,0.39,0.1,0.72,0.29,0.99 c0.2,0.27,0.44,0.5,0.74,0.68c0.3,0.19,0.62,0.34,0.98,0.46s0.68,0.22,0.98,0.29l2.34,0.53c0.5,0.07,1,0.21,1.49,0.4 c0.49,0.2,0.93,0.45,1.31,0.77c0.38,0.32,0.69,0.71,0.93,1.17s0.36,1.01,0.36,1.65c0,0.78-0.18,1.45-0.53,2 c-0.35,0.55-0.8,1-1.35,1.34c-0.55,0.34-1.17,0.59-1.86,0.74c-0.69,0.15-1.37,0.22-2.04,0.22c-1.69,0-3.06-0.4-4.12-1.2 c-1.05-0.8-1.65-2.08-1.8-3.85h1.76c0.07,1.19,0.51,2.09,1.3,2.69c0.79,0.6,1.77,0.91,2.94,0.91c0.43,0,0.87-0.05,1.32-0.14 c0.46-0.09,0.88-0.25,1.27-0.47c0.39-0.22,0.71-0.51,0.96-0.85c0.25-0.34,0.38-0.77,0.38-1.27c0-0.43-0.09-0.79-0.27-1.07 c-0.18-0.29-0.41-0.53-0.71-0.73s-0.64-0.36-1.02-0.49c-0.38-0.13-0.77-0.24-1.16-0.33l-2.26-0.5c-0.58-0.15-1.11-0.32-1.59-0.52 c-0.48-0.2-0.91-0.44-1.27-0.73c-0.36-0.29-0.65-0.64-0.85-1.06c-0.21-0.42-0.31-0.93-0.31-1.55c0-0.73,0.16-1.35,0.49-1.87 c0.32-0.52,0.75-0.94,1.27-1.26c0.52-0.32,1.1-0.55,1.74-0.7c0.64-0.15,1.28-0.22,1.91-0.22c0.72,0,1.4,0.09,2.02,0.28 c0.62,0.19,1.17,0.47,1.64,0.87c0.47,0.39,0.85,0.87,1.13,1.45c0.28,0.58,0.44,1.26,0.47,2.04h-1.76 C430.62,387.48,430.51,387.01,430.3,386.61z" style="fill: rgb(255, 255, 255);" transform="matrix(1, 0, 0, 1, 48.890915, 12.214048)"/>
  <path class="st0" d="M437.22,378.28v2.82h-1.76v-2.82H437.22z M437.22,383.81v14.4h-1.76v-14.4H437.22z" style="fill: rgb(255, 255, 255);" transform="matrix(1, 0, 0, 1, 48.890915, 12.214048)"/>
  <path class="st0" d="M446.32,383.81v1.48h-2.93V395c0,0.58,0.08,1.03,0.24,1.35c0.16,0.33,0.55,0.51,1.19,0.54 c0.5,0,1-0.03,1.51-0.08v1.48c-0.26,0-0.52,0.01-0.78,0.03s-0.52,0.03-0.78,0.03c-1.17,0-1.99-0.23-2.46-0.68s-0.69-1.3-0.67-2.53 v-9.85h-2.51v-1.48h2.51v-4.32h1.76v4.32H446.32z" style="fill: rgb(255, 255, 255);" transform="matrix(1, 0, 0, 1, 48.890915, 12.214048)"/>
  <path class="st0" d="M449.22,386.04c0.3-0.61,0.7-1.12,1.21-1.51s1.11-0.68,1.8-0.87c0.69-0.19,1.45-0.28,2.29-0.28 c0.63,0,1.26,0.06,1.9,0.18c0.63,0.12,1.2,0.35,1.7,0.68c0.5,0.33,0.91,0.8,1.23,1.41c0.32,0.6,0.47,1.39,0.47,2.36v7.64 c0,0.71,0.34,1.06,1.03,1.06c0.21,0,0.39-0.04,0.56-0.11v1.48c-0.21,0.04-0.39,0.07-0.54,0.08c-0.16,0.02-0.36,0.03-0.6,0.03 c-0.45,0-0.8-0.06-1.07-0.18c-0.27-0.12-0.48-0.29-0.63-0.52c-0.15-0.22-0.25-0.49-0.29-0.79c-0.05-0.31-0.07-0.65-0.07-1.02h-0.06 c-0.32,0.46-0.64,0.88-0.96,1.24s-0.69,0.67-1.09,0.91c-0.4,0.24-0.86,0.43-1.37,0.56s-1.12,0.2-1.83,0.2 c-0.67,0-1.3-0.08-1.88-0.24c-0.59-0.16-1.1-0.41-1.53-0.75c-0.44-0.34-0.78-0.78-1.03-1.31s-0.38-1.16-0.38-1.88 c0-1,0.22-1.79,0.67-2.36c0.45-0.57,1.04-1,1.77-1.3c0.73-0.3,1.56-0.51,2.48-0.63s1.86-0.24,2.8-0.35 c0.37-0.04,0.7-0.08,0.98-0.14s0.51-0.15,0.7-0.29c0.19-0.14,0.33-0.33,0.43-0.57c0.1-0.24,0.15-0.56,0.15-0.95 c0-0.59-0.1-1.08-0.29-1.46c-0.2-0.38-0.46-0.68-0.81-0.91c-0.34-0.22-0.74-0.38-1.2-0.46s-0.94-0.12-1.46-0.12 c-1.12,0-2.03,0.26-2.73,0.79s-1.08,1.38-1.12,2.55h-1.76C448.74,387.38,448.92,386.65,449.22,386.04z M458.01,390.34 c-0.11,0.21-0.33,0.35-0.64,0.45c-0.32,0.09-0.6,0.16-0.84,0.2c-0.74,0.13-1.51,0.25-2.3,0.35c-0.79,0.1-1.51,0.26-2.16,0.46 c-0.65,0.21-1.19,0.5-1.6,0.88s-0.63,0.93-0.63,1.63c0,0.45,0.09,0.84,0.27,1.19c0.18,0.34,0.41,0.64,0.71,0.89 s0.64,0.44,1.03,0.57c0.39,0.13,0.79,0.2,1.2,0.2c0.67,0,1.31-0.1,1.92-0.31c0.61-0.2,1.15-0.5,1.6-0.89 c0.46-0.39,0.82-0.87,1.09-1.42c0.27-0.56,0.4-1.19,0.4-1.9v-2.29H458.01z M452.76,381.8l2.93-3.93h2.18l-3.68,3.93H452.76z" style="fill: rgb(255, 255, 255);" transform="matrix(1, 0, 0, 1, 48.890915, 12.214048)"/>
  <path class="st0" d="M464.95,383.81v3.38h0.06c0.45-1.17,1.14-2.07,2.08-2.71c0.94-0.63,2.06-0.92,3.36-0.87v1.76 c-0.8-0.04-1.53,0.07-2.18,0.32s-1.21,0.61-1.69,1.07c-0.47,0.47-0.84,1.02-1.1,1.66s-0.39,1.34-0.39,2.11v7.67h-1.76v-14.4H464.95 z" style="fill: rgb(255, 255, 255);" transform="matrix(1, 0, 0, 1, 48.890915, 12.214048)"/>
  <path class="st0" d="M473.91,378.28v2.82h-1.76v-2.82H473.91z M473.91,383.81v14.4h-1.76v-14.4H473.91z" style="fill: rgb(255, 255, 255);" transform="matrix(1, 0, 0, 1, 48.890915, 12.214048)"/>
  <path class="st0" d="M477.65,386.04c0.3-0.61,0.7-1.12,1.21-1.51s1.11-0.68,1.8-0.87c0.69-0.19,1.45-0.28,2.29-0.28 c0.63,0,1.26,0.06,1.9,0.18c0.63,0.12,1.2,0.35,1.7,0.68c0.5,0.33,0.91,0.8,1.23,1.41c0.32,0.6,0.47,1.39,0.47,2.36v7.64 c0,0.71,0.34,1.06,1.03,1.06c0.21,0,0.39-0.04,0.56-0.11v1.48c-0.21,0.04-0.39,0.07-0.54,0.08c-0.16,0.02-0.36,0.03-0.6,0.03 c-0.45,0-0.8-0.06-1.07-0.18c-0.27-0.12-0.48-0.29-0.63-0.52c-0.15-0.22-0.25-0.49-0.29-0.79c-0.05-0.31-0.07-0.65-0.07-1.02h-0.06 c-0.32,0.46-0.64,0.88-0.96,1.24s-0.69,0.67-1.09,0.91c-0.4,0.24-0.86,0.43-1.37,0.56s-1.12,0.2-1.83,0.2 c-0.67,0-1.3-0.08-1.88-0.24c-0.59-0.16-1.1-0.41-1.53-0.75c-0.44-0.34-0.78-0.78-1.03-1.31s-0.38-1.16-0.38-1.88 c0-1,0.22-1.79,0.67-2.36c0.45-0.57,1.04-1,1.77-1.3c0.73-0.3,1.56-0.51,2.48-0.63s1.86-0.24,2.8-0.35 c0.37-0.04,0.7-0.08,0.98-0.14s0.51-0.15,0.7-0.29c0.19-0.14,0.33-0.33,0.43-0.57c0.1-0.24,0.15-0.56,0.15-0.95 c0-0.59-0.1-1.08-0.29-1.46c-0.2-0.38-0.46-0.68-0.81-0.91c-0.34-0.22-0.74-0.38-1.2-0.46s-0.94-0.12-1.46-0.12 c-1.12,0-2.03,0.26-2.73,0.79s-1.08,1.38-1.12,2.55h-1.76C477.17,387.38,477.35,386.65,477.65,386.04z M486.44,390.34 c-0.11,0.21-0.33,0.35-0.64,0.45c-0.32,0.09-0.6,0.16-0.84,0.2c-0.74,0.13-1.51,0.25-2.3,0.35c-0.79,0.1-1.51,0.26-2.16,0.46 c-0.65,0.21-1.19,0.5-1.6,0.88s-0.63,0.93-0.63,1.63c0,0.45,0.09,0.84,0.27,1.19c0.18,0.34,0.41,0.64,0.71,0.89 s0.64,0.44,1.03,0.57c0.39,0.13,0.79,0.2,1.2,0.2c0.67,0,1.31-0.1,1.92-0.31c0.61-0.2,1.15-0.5,1.6-0.89 c0.46-0.39,0.82-0.87,1.09-1.42c0.27-0.56,0.4-1.19,0.4-1.9v-2.29H486.44z" style="fill: rgb(255, 255, 255);" transform="matrix(1, 0, 0, 1, 48.890915, 12.214048)"/>
  <path class="st0" d="M501.89,378.28v19.92H500v-19.92H501.89z" style="fill: rgb(255, 255, 255);" transform="matrix(1, 0, 0, 1, 48.890915, 12.214048)"/>
  <path class="st0" d="M507.45,383.81v2.48h0.06c0.33-0.87,0.93-1.58,1.79-2.11c0.86-0.53,1.79-0.8,2.82-0.8c1,0,1.85,0.13,2.52,0.39 c0.68,0.26,1.22,0.63,1.63,1.1c0.41,0.47,0.7,1.06,0.86,1.74c0.17,0.69,0.25,1.46,0.25,2.32v9.26h-1.76v-8.98 c0-0.61-0.06-1.19-0.17-1.72c-0.11-0.53-0.31-0.99-0.59-1.38s-0.66-0.7-1.13-0.92c-0.47-0.22-1.06-0.33-1.77-0.33 s-1.33,0.12-1.88,0.38s-1.01,0.6-1.39,1.03c-0.38,0.44-0.68,0.96-0.89,1.56c-0.21,0.6-0.33,1.26-0.35,1.97v8.4h-1.76v-14.4H507.45z " style="fill: rgb(255, 255, 255);" transform="matrix(1, 0, 0, 1, 48.890915, 12.214048)"/>
  <path class="st0" d="M526.42,383.81v1.48h-2.93V395c0,0.58,0.08,1.03,0.24,1.35c0.16,0.33,0.55,0.51,1.19,0.54 c0.5,0,1-0.03,1.51-0.08v1.48c-0.26,0-0.52,0.01-0.78,0.03s-0.52,0.03-0.78,0.03c-1.17,0-1.99-0.23-2.46-0.68s-0.69-1.3-0.67-2.53 v-9.85h-2.51v-1.48h2.51v-4.32h1.76v4.32H526.42z" style="fill: rgb(255, 255, 255);" transform="matrix(1, 0, 0, 1, 48.890915, 12.214048)"/>
  <path class="st0" d="M530.25,393.45c0.18,0.68,0.46,1.29,0.85,1.83c0.39,0.54,0.88,0.99,1.48,1.34c0.6,0.35,1.31,0.53,2.15,0.53 c1.28,0,2.29-0.33,3.01-1c0.73-0.67,1.23-1.56,1.51-2.68h1.76c-0.37,1.64-1.06,2.9-2.05,3.79c-1,0.89-2.4,1.34-4.23,1.34 c-1.13,0-2.12-0.2-2.94-0.6c-0.83-0.4-1.5-0.95-2.02-1.65c-0.52-0.7-0.91-1.51-1.16-2.43c-0.25-0.92-0.38-1.89-0.38-2.92 c0-0.95,0.13-1.88,0.38-2.79s0.64-1.73,1.16-2.44c0.52-0.72,1.19-1.29,2.02-1.73c0.83-0.44,1.81-0.66,2.94-0.66 c1.15,0,2.14,0.23,2.96,0.7c0.82,0.46,1.48,1.07,1.99,1.83s0.88,1.62,1.1,2.59c0.22,0.98,0.32,1.97,0.28,2.97h-11.08 C529.99,392.11,530.08,392.77,530.25,393.45z M538.96,388.08c-0.21-0.61-0.52-1.16-0.91-1.63c-0.39-0.47-0.87-0.86-1.42-1.14 c-0.56-0.29-1.19-0.43-1.9-0.43c-0.73,0-1.37,0.14-1.92,0.43c-0.56,0.29-1.03,0.67-1.42,1.14c-0.39,0.47-0.7,1.02-0.93,1.65 c-0.23,0.62-0.39,1.26-0.46,1.91h9.32C539.29,389.33,539.17,388.69,538.96,388.08z" style="fill: rgb(255, 255, 255);" transform="matrix(1, 0, 0, 1, 48.890915, 12.214048)"/>
  <path class="st0" d="M555.25,399.91c-0.23,0.86-0.6,1.58-1.1,2.18s-1.16,1.05-1.97,1.37c-0.81,0.32-1.8,0.47-2.97,0.47 c-0.73,0-1.43-0.08-2.12-0.25c-0.69-0.17-1.31-0.43-1.86-0.78c-0.55-0.35-1-0.8-1.37-1.35s-0.57-1.2-0.63-1.97H545 c0.09,0.54,0.27,0.99,0.54,1.35c0.27,0.36,0.6,0.66,0.98,0.88c0.38,0.22,0.8,0.39,1.27,0.49c0.46,0.1,0.94,0.15,1.42,0.15 c1.64,0,2.82-0.47,3.54-1.4c0.72-0.93,1.09-2.27,1.09-4.02v-1.95h-0.06c-0.41,0.89-1.01,1.61-1.8,2.15 c-0.79,0.54-1.72,0.81-2.78,0.81c-1.15,0-2.14-0.19-2.96-0.57c-0.82-0.38-1.49-0.91-2.02-1.58c-0.53-0.67-0.92-1.46-1.16-2.36 c-0.24-0.9-0.36-1.87-0.36-2.89c0-0.99,0.14-1.92,0.43-2.8c0.29-0.88,0.71-1.66,1.26-2.32c0.55-0.66,1.23-1.18,2.04-1.56 c0.81-0.38,1.73-0.57,2.78-0.57c0.54,0,1.05,0.08,1.52,0.22c0.47,0.15,0.91,0.36,1.3,0.63s0.74,0.58,1.05,0.93s0.54,0.73,0.71,1.12 h0.06v-2.48h1.76v13.22C555.6,398.09,555.48,399.05,555.25,399.91z M551.22,396.07c0.58-0.33,1.06-0.75,1.45-1.28 s0.68-1.14,0.88-1.83s0.29-1.4,0.29-2.12c0-0.71-0.08-1.41-0.25-2.12c-0.17-0.71-0.44-1.35-0.81-1.92s-0.85-1.04-1.44-1.4 c-0.59-0.35-1.3-0.53-2.13-0.53s-1.55,0.17-2.15,0.52c-0.59,0.34-1.09,0.79-1.48,1.35c-0.39,0.56-0.67,1.2-0.85,1.91 c-0.18,0.72-0.27,1.45-0.27,2.19c0,0.72,0.09,1.43,0.28,2.12c0.19,0.69,0.47,1.3,0.87,1.83s0.88,0.96,1.48,1.28 c0.59,0.33,1.3,0.49,2.12,0.49C549.97,396.56,550.64,396.4,551.22,396.07z" style="fill: rgb(255, 255, 255);" transform="matrix(1, 0, 0, 1, 48.890915, 12.214048)"/>
  <path class="st0" d="M560.57,383.81v3.38h0.06c0.45-1.17,1.14-2.07,2.08-2.71c0.94-0.63,2.06-0.92,3.36-0.87v1.76 c-0.8-0.04-1.53,0.07-2.18,0.32s-1.21,0.61-1.69,1.07c-0.47,0.47-0.84,1.02-1.1,1.66s-0.39,1.34-0.39,2.11v7.67h-1.76v-14.4H560.57 z" style="fill: rgb(255, 255, 255);" transform="matrix(1, 0, 0, 1, 48.890915, 12.214048)"/>
  <path class="st0" d="M568.1,386.04c0.3-0.61,0.7-1.12,1.21-1.51s1.11-0.68,1.8-0.87c0.69-0.19,1.45-0.28,2.29-0.28 c0.63,0,1.26,0.06,1.9,0.18c0.63,0.12,1.2,0.35,1.7,0.68c0.5,0.33,0.91,0.8,1.23,1.41c0.32,0.6,0.47,1.39,0.47,2.36v7.64 c0,0.71,0.34,1.06,1.03,1.06c0.21,0,0.39-0.04,0.56-0.11v1.48c-0.21,0.04-0.39,0.07-0.54,0.08c-0.16,0.02-0.36,0.03-0.6,0.03 c-0.45,0-0.8-0.06-1.07-0.18c-0.27-0.12-0.48-0.29-0.63-0.52c-0.15-0.22-0.25-0.49-0.29-0.79c-0.05-0.31-0.07-0.65-0.07-1.02h-0.06 c-0.32,0.46-0.64,0.88-0.96,1.24s-0.69,0.67-1.09,0.91c-0.4,0.24-0.86,0.43-1.37,0.56s-1.12,0.2-1.83,0.2 c-0.67,0-1.3-0.08-1.88-0.24c-0.59-0.16-1.1-0.41-1.53-0.75c-0.44-0.34-0.78-0.78-1.03-1.31s-0.38-1.16-0.38-1.88 c0-1,0.22-1.79,0.67-2.36c0.45-0.57,1.04-1,1.77-1.3c0.73-0.3,1.56-0.51,2.48-0.63s1.86-0.24,2.8-0.35 c0.37-0.04,0.7-0.08,0.98-0.14s0.51-0.15,0.7-0.29c0.19-0.14,0.33-0.33,0.43-0.57c0.1-0.24,0.15-0.56,0.15-0.95 c0-0.59-0.1-1.08-0.29-1.46c-0.2-0.38-0.46-0.68-0.81-0.91c-0.34-0.22-0.74-0.38-1.2-0.46s-0.94-0.12-1.46-0.12 c-1.12,0-2.03,0.26-2.73,0.79s-1.08,1.38-1.12,2.55h-1.76C567.62,387.38,567.8,386.65,568.1,386.04z M576.89,390.34 c-0.11,0.21-0.33,0.35-0.64,0.45c-0.32,0.09-0.6,0.16-0.84,0.2c-0.74,0.13-1.51,0.25-2.3,0.35c-0.79,0.1-1.51,0.26-2.16,0.46 c-0.65,0.21-1.19,0.5-1.6,0.88s-0.63,0.93-0.63,1.63c0,0.45,0.09,0.84,0.27,1.19c0.18,0.34,0.41,0.64,0.71,0.89 s0.64,0.44,1.03,0.57c0.39,0.13,0.79,0.2,1.2,0.2c0.67,0,1.31-0.1,1.92-0.31c0.61-0.2,1.15-0.5,1.6-0.89 c0.46-0.39,0.82-0.87,1.09-1.42c0.27-0.56,0.4-1.19,0.4-1.9v-2.29H576.89z" style="fill: rgb(255, 255, 255);" transform="matrix(1, 0, 0, 1, 48.890915, 12.214048)"/>
  <path class="st0" d="M593.26,398.2v-2.73h-0.06c-0.19,0.46-0.46,0.89-0.82,1.28s-0.78,0.72-1.24,0.99 c-0.47,0.27-0.96,0.48-1.49,0.63c-0.53,0.15-1.06,0.22-1.58,0.22c-1.1,0-2.05-0.2-2.86-0.6c-0.81-0.4-1.48-0.95-2.02-1.65 s-0.94-1.51-1.2-2.43c-0.26-0.92-0.39-1.89-0.39-2.92c0-1.02,0.13-2,0.39-2.92c0.26-0.92,0.66-1.73,1.2-2.43s1.21-1.25,2.02-1.66 c0.81-0.41,1.76-0.61,2.86-0.61c0.54,0,1.06,0.07,1.58,0.2c0.51,0.13,0.99,0.33,1.44,0.6c0.45,0.27,0.84,0.6,1.19,0.99 c0.34,0.39,0.61,0.85,0.79,1.37h0.06v-8.26h1.76v19.92H593.26z M583.62,393.22c0.18,0.74,0.46,1.39,0.84,1.97 c0.38,0.58,0.87,1.05,1.46,1.41c0.59,0.36,1.31,0.54,2.15,0.54c0.93,0,1.72-0.18,2.36-0.54c0.64-0.36,1.16-0.83,1.56-1.41 c0.4-0.58,0.69-1.23,0.87-1.97c0.18-0.73,0.26-1.47,0.26-2.22s-0.09-1.48-0.26-2.22c-0.18-0.74-0.47-1.39-0.87-1.97 c-0.4-0.58-0.92-1.05-1.56-1.41c-0.64-0.36-1.43-0.54-2.36-0.54c-0.84,0-1.55,0.18-2.15,0.54c-0.6,0.36-1.08,0.83-1.46,1.41 c-0.38,0.58-0.66,1.23-0.84,1.97c-0.18,0.73-0.26,1.47-0.26,2.22S583.45,392.49,583.62,393.22z" style="fill: rgb(255, 255, 255);" transform="matrix(1, 0, 0, 1, 48.890915, 12.214048)"/>
  <path class="st0" d="M598.59,386.04c0.3-0.61,0.7-1.12,1.21-1.51s1.11-0.68,1.8-0.87c0.69-0.19,1.45-0.28,2.29-0.28 c0.63,0,1.26,0.06,1.9,0.18c0.63,0.12,1.2,0.35,1.7,0.68c0.5,0.33,0.91,0.8,1.23,1.41c0.32,0.6,0.47,1.39,0.47,2.36v7.64 c0,0.71,0.34,1.06,1.03,1.06c0.21,0,0.39-0.04,0.56-0.11v1.48c-0.21,0.04-0.39,0.07-0.54,0.08c-0.16,0.02-0.36,0.03-0.6,0.03 c-0.45,0-0.8-0.06-1.07-0.18c-0.27-0.12-0.48-0.29-0.63-0.52c-0.15-0.22-0.25-0.49-0.29-0.79c-0.05-0.31-0.07-0.65-0.07-1.02h-0.06 c-0.32,0.46-0.64,0.88-0.96,1.24s-0.69,0.67-1.09,0.91c-0.4,0.24-0.86,0.43-1.37,0.56s-1.12,0.2-1.83,0.2 c-0.67,0-1.3-0.08-1.88-0.24c-0.59-0.16-1.1-0.41-1.53-0.75c-0.44-0.34-0.78-0.78-1.03-1.31s-0.38-1.16-0.38-1.88 c0-1,0.22-1.79,0.67-2.36c0.45-0.57,1.04-1,1.77-1.3c0.73-0.3,1.56-0.51,2.48-0.63s1.86-0.24,2.8-0.35 c0.37-0.04,0.7-0.08,0.98-0.14s0.51-0.15,0.7-0.29c0.19-0.14,0.33-0.33,0.43-0.57c0.1-0.24,0.15-0.56,0.15-0.95 c0-0.59-0.1-1.08-0.29-1.46c-0.2-0.38-0.46-0.68-0.81-0.91c-0.34-0.22-0.74-0.38-1.2-0.46s-0.94-0.12-1.46-0.12 c-1.12,0-2.03,0.26-2.73,0.79s-1.08,1.38-1.12,2.55h-1.76C598.12,387.38,598.3,386.65,598.59,386.04z M607.38,390.34 c-0.11,0.21-0.33,0.35-0.64,0.45c-0.32,0.09-0.6,0.16-0.84,0.2c-0.74,0.13-1.51,0.25-2.3,0.35c-0.79,0.1-1.51,0.26-2.16,0.46 c-0.65,0.21-1.19,0.5-1.6,0.88s-0.63,0.93-0.63,1.63c0,0.45,0.09,0.84,0.27,1.19c0.18,0.34,0.41,0.64,0.71,0.89 s0.64,0.44,1.03,0.57c0.39,0.13,0.79,0.2,1.2,0.2c0.67,0,1.31-0.1,1.92-0.31c0.61-0.2,1.15-0.5,1.6-0.89 c0.46-0.39,0.82-0.87,1.09-1.42c0.27-0.56,0.4-1.19,0.4-1.9v-2.29H607.38z" style="fill: rgb(255, 255, 255);" transform="matrix(1, 0, 0, 1, 48.890915, 12.214048)"/>
  <g transform="matrix(1, 0, 0, 1, 48.890915, 12.214048)">
    <g>
      <path class="st1" d="M242.66,191.55c-8.75-2.98-18.11-4.61-27.86-4.61c-9.75,0-19.11,1.64-27.86,4.61 c-23.77,8.09-42.88,26.22-52.28,49.35h160.28C285.54,217.77,266.43,199.63,242.66,191.55z" style="fill: rgb(14, 139, 41);"/>
    </g>
    <g>
      <path class="st1" d="M182.28,298.1h114.39c0-27.26-22.1-49.35-49.35-49.35H132.93C132.93,276,155.02,298.1,182.28,298.1z" style="fill: rgb(14, 139, 41);"/>
    </g>
    <g>
      <path class="st1" d="M186.94,355.29c8.75,2.98,18.11,4.61,27.86,4.61c9.75,0,19.11-1.64,27.86-4.61 c23.77-8.09,42.88-26.22,52.28-49.35H134.66C144.05,329.07,163.17,347.2,186.94,355.29z" style="fill: rgb(14, 139, 41);"/>
    </g>
  </g>
  <path d="M 399.782 222.761 L 399.782 235.651 L 393.732 235.651 L 393.732 206.251 L 399.782 206.251 L 399.782 217.251 L 413.052 217.251 L 413.052 206.251 L 419.062 206.251 L 419.062 235.651 L 413.052 235.651 L 413.052 222.761 L 399.782 222.761 ZM 428.177 225.151 C 428.177 226.831 428.724 228.231 429.817 229.351 C 430.91 230.471 432.297 231.031 433.977 231.031 C 435.657 231.031 437.04 230.471 438.127 229.351 C 439.22 228.204 439.767 226.804 439.767 225.151 C 439.767 223.471 439.22 222.084 438.127 220.991 C 437.04 219.871 435.657 219.311 433.977 219.311 C 432.297 219.311 430.91 219.871 429.817 220.991 C 428.724 222.084 428.177 223.471 428.177 225.151 Z M 422.337 225.151 C 422.337 222.044 423.43 219.441 425.617 217.341 C 427.77 215.214 430.557 214.151 433.977 214.151 C 437.39 214.151 440.174 215.214 442.327 217.341 C 444.514 219.468 445.607 222.071 445.607 225.151 C 445.607 228.284 444.514 230.918 442.327 233.051 C 440.147 235.151 437.364 236.201 433.977 236.201 C 430.584 236.201 427.797 235.151 425.617 233.051 C 423.43 230.918 422.337 228.284 422.337 225.151 ZM 454.388 222.341 L 454.388 235.651 L 448.468 235.651 L 448.468 214.691 L 454.388 214.691 L 454.388 217.251 C 455.955 215.184 458.081 214.151 460.768 214.151 C 462.281 214.151 463.635 214.484 464.828 215.151 C 466.015 215.824 466.831 216.681 467.278 217.721 C 467.978 216.654 468.988 215.791 470.308 215.131 C 471.621 214.478 473.021 214.151 474.508 214.151 C 476.801 214.151 478.621 214.878 479.968 216.331 C 481.308 217.784 481.978 219.858 481.978 222.551 L 481.978 235.651 L 476.058 235.651 L 476.058 223.891 C 476.058 221.004 474.898 219.561 472.578 219.561 C 471.678 219.561 470.821 219.828 470.008 220.361 C 469.201 220.894 468.601 221.581 468.208 222.421 L 468.208 235.651 L 462.288 235.651 L 462.288 223.891 C 462.288 221.004 461.125 219.561 458.798 219.561 C 457.958 219.561 457.118 219.828 456.278 220.361 C 455.438 220.894 454.808 221.554 454.388 222.341 ZM 490.296 225.151 C 490.296 226.831 490.843 228.231 491.936 229.351 C 493.03 230.471 494.416 231.031 496.096 231.031 C 497.776 231.031 499.16 230.471 500.246 229.351 C 501.34 228.204 501.886 226.804 501.886 225.151 C 501.886 223.471 501.34 222.084 500.246 220.991 C 499.16 219.871 497.776 219.311 496.096 219.311 C 494.416 219.311 493.03 219.871 491.936 220.991 C 490.843 222.084 490.296 223.471 490.296 225.151 Z M 484.456 225.151 C 484.456 222.044 485.55 219.441 487.736 217.341 C 489.89 215.214 492.676 214.151 496.096 214.151 C 499.51 214.151 502.293 215.214 504.446 217.341 C 506.633 219.468 507.726 222.071 507.726 225.151 C 507.726 228.284 506.633 230.918 504.446 233.051 C 502.266 235.151 499.483 236.201 496.096 236.201 C 492.703 236.201 489.916 235.151 487.736 233.051 C 485.55 230.918 484.456 228.284 484.456 225.151 ZM 516.167 236.201 C 514.434 236.201 513.071 235.731 512.077 234.791 C 511.084 233.851 510.587 232.388 510.587 230.401 L 510.587 206.251 L 516.507 206.251 L 516.507 228.851 C 516.507 230.251 517.137 230.951 518.397 230.951 C 518.984 230.951 519.487 230.824 519.907 230.571 L 519.907 235.441 C 518.901 235.948 517.654 236.201 516.167 236.201 ZM 526.889 225.151 C 526.889 226.831 527.435 228.231 528.529 229.351 C 529.622 230.471 531.009 231.031 532.689 231.031 C 534.369 231.031 535.752 230.471 536.839 229.351 C 537.932 228.204 538.479 226.804 538.479 225.151 C 538.479 223.471 537.932 222.084 536.839 220.991 C 535.752 219.871 534.369 219.311 532.689 219.311 C 531.009 219.311 529.622 219.871 528.529 220.991 C 527.435 222.084 526.889 223.471 526.889 225.151 Z M 521.049 225.151 C 521.049 222.044 522.142 219.441 524.329 217.341 C 526.482 215.214 529.269 214.151 532.689 214.151 C 536.102 214.151 538.885 215.214 541.039 217.341 C 543.225 219.468 544.319 222.071 544.319 225.151 C 544.319 228.284 543.225 230.918 541.039 233.051 C 538.859 235.151 536.075 236.201 532.689 236.201 C 529.295 236.201 526.509 235.151 524.329 233.051 C 522.142 230.918 521.049 228.284 521.049 225.151 ZM 562.469 217.131 L 562.469 214.691 L 568.389 214.691 L 568.389 233.211 C 568.389 236.798 567.186 239.544 564.779 241.451 C 562.366 243.351 559.523 244.301 556.249 244.301 C 552.803 244.301 550.059 243.701 548.019 242.501 L 548.019 237.161 C 550.233 238.508 552.766 239.181 555.619 239.181 C 556.486 239.181 557.299 239.091 558.059 238.911 C 558.813 238.724 559.539 238.428 560.239 238.021 C 560.939 237.614 561.486 237.028 561.879 236.261 C 562.273 235.488 562.469 234.571 562.469 233.511 L 562.469 232.211 C 560.816 234.198 558.506 235.191 555.539 235.191 C 552.679 235.191 550.339 234.181 548.519 232.161 C 546.699 230.121 545.789 227.618 545.789 224.651 C 545.789 221.711 546.699 219.218 548.519 217.171 C 550.339 215.158 552.679 214.151 555.539 214.151 C 558.506 214.151 560.816 215.144 562.469 217.131 Z M 557.259 230.061 C 558.379 230.061 559.399 229.798 560.319 229.271 C 561.246 228.738 561.963 228.051 562.469 227.211 L 562.469 222.171 C 561.963 221.331 561.246 220.644 560.319 220.111 C 559.399 219.578 558.379 219.311 557.259 219.311 C 555.606 219.311 554.269 219.821 553.249 220.841 C 552.223 221.868 551.709 223.151 551.709 224.691 C 551.709 226.231 552.236 227.511 553.289 228.531 C 554.336 229.551 555.659 230.061 557.259 230.061 ZM 592.416 231.071 C 592.916 231.071 593.323 230.988 593.636 230.821 L 593.636 235.151 C 592.876 235.738 591.809 236.031 590.436 236.031 C 588.056 236.031 586.476 235.134 585.696 233.341 C 583.849 235.248 581.439 236.201 578.466 236.201 C 576.173 236.201 574.313 235.554 572.886 234.261 C 571.459 232.974 570.746 231.281 570.746 229.181 C 570.746 226.941 571.556 225.234 573.176 224.061 C 574.803 222.881 576.749 222.291 579.016 222.291 C 581.396 222.291 583.413 222.728 585.066 223.601 L 585.066 222.971 C 585.066 220.338 583.216 219.021 579.516 219.021 C 577.249 219.021 575.136 219.608 573.176 220.781 L 573.176 215.831 C 575.303 214.711 577.893 214.151 580.946 214.151 C 583.973 214.151 586.383 214.878 588.176 216.331 C 590.023 217.784 590.946 219.801 590.946 222.381 L 590.946 229.481 C 590.946 230.541 591.436 231.071 592.416 231.071 Z M 585.066 229.481 L 585.066 227.381 C 583.833 226.568 582.376 226.161 580.696 226.161 C 579.436 226.161 578.436 226.398 577.696 226.871 C 576.949 227.351 576.576 228.024 576.576 228.891 C 576.576 229.784 576.913 230.461 577.586 230.921 C 578.259 231.388 579.169 231.621 580.316 231.621 C 582.389 231.621 583.973 230.908 585.066 229.481 ZM 594.851 225.111 C 594.851 221.804 595.971 219.158 598.211 217.171 C 600.478 215.158 603.181 214.151 606.321 214.151 C 608.615 214.151 610.685 214.611 612.531 215.531 L 612.531 220.571 C 610.711 219.731 608.935 219.311 607.201 219.311 C 605.355 219.311 603.801 219.858 602.541 220.951 C 601.308 222.018 600.691 223.418 600.691 225.151 C 600.691 226.884 601.321 228.298 602.581 229.391 C 603.841 230.484 605.381 231.031 607.201 231.031 C 609.355 231.031 611.245 230.554 612.871 229.601 L 612.871 234.641 C 611.778 235.228 610.615 235.648 609.381 235.901 L 606.911 241.741 L 600.061 241.741 L 604.301 236.031 C 601.588 235.638 599.335 234.461 597.541 232.501 C 595.748 230.541 594.851 228.078 594.851 225.111 ZM 636.356 231.071 C 636.856 231.071 637.263 230.988 637.576 230.821 L 637.576 235.151 C 636.816 235.738 635.749 236.031 634.376 236.031 C 631.996 236.031 630.416 235.134 629.636 233.341 C 627.789 235.248 625.379 236.201 622.406 236.201 C 620.113 236.201 618.253 235.554 616.826 234.261 C 615.399 232.974 614.686 231.281 614.686 229.181 C 614.686 226.941 615.496 225.234 617.116 224.061 C 618.743 222.881 620.689 222.291 622.956 222.291 C 625.336 222.291 627.353 222.728 629.006 223.601 L 629.006 222.971 C 629.006 220.338 627.156 219.021 623.456 219.021 C 621.189 219.021 619.076 219.608 617.116 220.781 L 617.116 215.831 C 619.243 214.711 621.833 214.151 624.886 214.151 C 627.913 214.151 630.323 214.878 632.116 216.331 C 633.963 217.784 634.886 219.801 634.886 222.381 L 634.886 229.481 C 634.886 230.541 635.376 231.071 636.356 231.071 Z M 629.006 229.481 L 629.006 227.381 C 627.773 226.568 626.316 226.161 624.636 226.161 C 623.376 226.161 622.376 226.398 621.636 226.871 C 620.889 227.351 620.516 228.024 620.516 228.891 C 620.516 229.784 620.853 230.461 621.526 230.921 C 622.199 231.388 623.109 231.621 624.256 231.621 C 626.329 231.621 627.913 230.908 629.006 229.481 Z M 620.896 211.461 L 617.706 211.461 C 617.706 209.808 618.139 208.421 619.006 207.301 C 619.906 206.154 621.056 205.581 622.456 205.581 C 623.323 205.581 624.316 205.888 625.436 206.501 C 626.583 207.121 627.449 207.431 628.036 207.431 C 628.989 207.431 629.579 206.854 629.806 205.701 L 633.036 205.701 C 633.009 207.241 632.546 208.628 631.646 209.861 C 630.753 211.041 629.633 211.631 628.286 211.631 C 627.393 211.631 626.386 211.321 625.266 210.701 C 624.119 210.061 623.266 209.741 622.706 209.741 C 621.753 209.741 621.149 210.314 620.896 211.461 ZM 644.631 225.151 C 644.631 226.831 645.178 228.231 646.271 229.351 C 647.364 230.471 648.751 231.031 650.431 231.031 C 652.111 231.031 653.494 230.471 654.581 229.351 C 655.674 228.204 656.221 226.804 656.221 225.151 C 656.221 223.471 655.674 222.084 654.581 220.991 C 653.494 219.871 652.111 219.311 650.431 219.311 C 648.751 219.311 647.364 219.871 646.271 220.991 C 645.178 222.084 644.631 223.471 644.631 225.151 Z M 638.791 225.151 C 638.791 222.044 639.884 219.441 642.071 217.341 C 644.224 215.214 647.011 214.151 650.431 214.151 C 653.844 214.151 656.628 215.214 658.781 217.341 C 660.968 219.468 662.061 222.071 662.061 225.151 C 662.061 228.284 660.968 230.918 658.781 233.051 C 656.601 235.151 653.818 236.201 650.431 236.201 C 647.038 236.201 644.251 235.151 642.071 233.051 C 639.884 230.918 638.791 228.284 638.791 225.151 Z" transform="matrix(1, 0, 0, 1, 0, 0)" style="fill: rgb(255, 255, 255); white-space: pre;"/>
</svg>