<?xml version="1.0" encoding="utf-8"?>
<svg viewBox="6.595 7.207 393.55 125.63" xmlns="http://www.w3.org/2000/svg">
  <path class="st0" d="M236.46,318.87v-12.58c4.43,2.92,12.38,5.74,20.54,5.74c5.74,0,8.66-1.41,8.66-4.23 c0-1.31-0.6-2.32-2.52-3.12c-0.91-0.4-1.81-0.71-2.62-0.91l-3.73-0.91c-1.71-0.5-3.12-0.81-4.03-1.11 c-11.58-3.12-16.31-6.75-16.31-15.6c0-9.56,8.36-15.4,22.15-15.4c7.55,0,13.89,1.51,18.83,4.63v12.08 c-6.04-3.52-12.08-5.24-18.22-5.24c-5.34,0-8.05,1.31-8.05,4.03c0,1.71,1.31,2.42,2.82,3.32c1.11,0.4,3.12,0.91,4.33,1.31 l5.34,1.11c10.87,2.52,16.41,7.15,16.41,15.91c0,4.73-2.01,8.46-6.14,11.38s-9.56,4.33-16.31,4.33 C248.64,323.6,241.59,321.99,236.46,318.87z" style="fill: rgb(60, 60, 59);" transform="matrix(1, 0, 0, 1, -75.724884, -227.302505)"/>
  <path class="st0" d="M336.83,310.71v10.37c-1.81,1.41-4.33,2.11-7.65,2.11c-5.74,0-9.46-2.11-11.38-6.44 c-4.43,4.53-10.17,6.85-17.32,6.85c-10.87,0-18.52-6.64-18.52-16.81c0-5.34,1.91-9.46,5.84-12.28c3.93-2.82,8.56-4.23,13.99-4.23 c5.64,0,10.47,1.01,14.5,3.12v-1.51c0-6.34-4.43-9.46-13.29-9.46c-5.34,0-10.47,1.41-15.2,4.23v-11.88 c5.13-2.72,11.28-4.03,18.63-4.03c7.15,0,12.99,1.71,17.32,5.24c4.43,3.52,6.64,8.36,6.64,14.5v17.01c0,2.52,1.21,3.83,3.52,3.83 C335.12,311.32,336.13,311.12,336.83,310.71z M316.29,302.46c-2.92-1.91-6.34-2.92-10.47-2.92c-6.04,0-9.87,2.42-9.87,6.54 c0,4.43,3.73,6.54,8.96,6.54c4.93,0,8.76-1.71,11.38-5.13V302.46z" style="fill: rgb(60, 60, 59);" transform="matrix(1, 0, 0, 1, -75.724884, -227.302505)"/>
  <path class="st0" d="M378.82,272.05h14.2v44.4c0,18.42-14.9,26.58-29.1,26.58c-8.26,0-14.8-1.41-19.73-4.33v-12.79 c5.34,3.22,11.48,4.83,18.22,4.83c7.75,0,16.41-2.92,16.41-13.59v-3.12c-3.93,4.73-9.46,7.15-16.61,7.15 c-6.85,0-12.48-2.42-16.81-7.25c-4.33-4.83-6.54-10.87-6.54-18.02s2.21-13.09,6.54-17.92c4.33-4.83,9.97-7.25,16.81-7.25 c7.15,0,12.69,2.42,16.61,7.15V272.05z M378.82,302.05v-12.08c-2.32-3.93-6.95-6.85-12.48-6.85c-7.95,0-13.29,5.54-13.29,12.89 c0,7.35,5.54,12.89,13.29,12.89C371.87,308.9,376.5,305.98,378.82,302.05z" style="fill: rgb(60, 60, 59);" transform="matrix(1, 0, 0, 1, -75.724884, -227.302505)"/>
  <path class="st0" d="M436.1,272.05h14.2v50.24h-14.2v-6.04c-4.53,4.93-10.07,7.35-16.81,7.35c-11.68,0-18.32-7.85-18.32-20.74 v-30.81h14.2v27.89c0,7.75,4.33,10.67,9.56,10.67c4.43,0,8.96-2.82,11.38-6.54V272.05z" style="fill: rgb(60, 60, 59);" transform="matrix(1, 0, 0, 1, -75.724884, -227.302505)"/>
  <path class="st0" d="M467.41,250.21c4.73,0,8.46,3.73,8.46,8.56c0,4.73-3.73,8.46-8.46,8.46c-4.73,0-8.46-3.73-8.46-8.46 C458.96,253.93,462.68,250.21,467.41,250.21z M460.36,322.29v-50.24h14.2v50.24H460.36z" style="fill: rgb(60, 60, 59);" transform="matrix(1, 0, 0, 1, -75.724884, -227.302505)"/>
  <g transform="matrix(1, 0, 0, 1, -75.724884, -227.302505)">
    <g>
      <path class="st1" d="M162.01,237.86c-6.35-2.16-13.15-3.35-20.23-3.35s-13.88,1.19-20.23,3.35 c-17.26,5.87-31.15,19.04-37.97,35.84h116.41C193.16,256.9,179.28,243.73,162.01,237.86z" style="fill: rgb(14, 139, 41);"/>
    </g>
    <g>
      <path class="st1" d="M118.16,315.25h83.08c0-19.8-16.05-35.84-35.84-35.84H82.32C82.32,299.2,98.37,315.25,118.16,315.25z" style="fill: rgb(14, 139, 41);"/>
    </g>
    <g>
      <path class="st1" d="M121.55,356.79c6.35,2.16,13.15,3.35,20.23,3.35s13.88-1.19,20.23-3.35c17.26-5.87,31.15-19.04,37.97-35.84 H83.58C90.4,337.74,104.28,350.91,121.55,356.79z" style="fill: rgb(14, 139, 41);"/>
    </g>
  </g>
  <path d="M 165.182 23.485 L 165.182 32.695 L 160.862 32.695 L 160.862 11.695 L 165.182 11.695 L 165.182 19.555 L 174.662 19.555 L 174.662 11.695 L 178.952 11.695 L 178.952 32.695 L 174.662 32.695 L 174.662 23.485 L 165.182 23.485 ZM 185.031 25.195 C 185.031 26.395 185.421 27.395 186.201 28.195 C 186.981 28.995 187.971 29.395 189.171 29.395 C 190.371 29.395 191.361 28.995 192.141 28.195 C 192.921 27.375 193.311 26.375 193.311 25.195 C 193.311 23.995 192.921 23.005 192.141 22.225 C 191.361 21.425 190.371 21.025 189.171 21.025 C 187.971 21.025 186.981 21.425 186.201 22.225 C 185.421 23.005 185.031 23.995 185.031 25.195 Z M 180.861 25.195 C 180.861 22.975 181.641 21.115 183.201 19.615 C 184.741 18.095 186.731 17.335 189.171 17.335 C 191.611 17.335 193.601 18.095 195.141 19.615 C 196.701 21.135 197.481 22.995 197.481 25.195 C 197.481 27.435 196.701 29.315 195.141 30.835 C 193.581 32.335 191.591 33.085 189.171 33.085 C 186.751 33.085 184.761 32.335 183.201 30.835 C 181.641 29.315 180.861 27.435 180.861 25.195 ZM 203.322 23.185 L 203.322 32.695 L 199.092 32.695 L 199.092 17.725 L 203.322 17.725 L 203.322 19.555 C 204.442 18.075 205.962 17.335 207.882 17.335 C 208.962 17.335 209.926 17.575 210.772 18.055 C 211.626 18.535 212.212 19.145 212.532 19.885 C 213.032 19.125 213.752 18.512 214.692 18.045 C 215.632 17.572 216.632 17.335 217.692 17.335 C 219.332 17.335 220.632 17.855 221.592 18.895 C 222.552 19.935 223.032 21.415 223.032 23.335 L 223.032 32.695 L 218.802 32.695 L 218.802 24.295 C 218.802 22.235 217.972 21.205 216.312 21.205 C 215.672 21.205 215.062 21.395 214.482 21.775 C 213.902 22.155 213.472 22.645 213.192 23.245 L 213.192 32.695 L 208.962 32.695 L 208.962 24.295 C 208.962 22.235 208.132 21.205 206.472 21.205 C 205.872 21.205 205.272 21.395 204.672 21.775 C 204.072 22.155 203.622 22.625 203.322 23.185 ZM 228.539 25.195 C 228.539 26.395 228.929 27.395 229.709 28.195 C 230.489 28.995 231.479 29.395 232.679 29.395 C 233.879 29.395 234.869 28.995 235.649 28.195 C 236.429 27.375 236.819 26.375 236.819 25.195 C 236.819 23.995 236.429 23.005 235.649 22.225 C 234.869 21.425 233.879 21.025 232.679 21.025 C 231.479 21.025 230.489 21.425 229.709 22.225 C 228.929 23.005 228.539 23.995 228.539 25.195 Z M 224.369 25.195 C 224.369 22.975 225.149 21.115 226.709 19.615 C 228.249 18.095 230.239 17.335 232.679 17.335 C 235.119 17.335 237.109 18.095 238.649 19.615 C 240.209 21.135 240.989 22.995 240.989 25.195 C 240.989 27.435 240.209 29.315 238.649 30.835 C 237.089 32.335 235.099 33.085 232.679 33.085 C 230.259 33.085 228.269 32.335 226.709 30.835 C 225.149 29.315 224.369 27.435 224.369 25.195 ZM 246.59 33.085 C 245.35 33.085 244.373 32.752 243.66 32.085 C 242.953 31.412 242.6 30.365 242.6 28.945 L 242.6 11.695 L 246.83 11.695 L 246.83 27.835 C 246.83 28.835 247.28 29.335 248.18 29.335 C 248.6 29.335 248.96 29.245 249.26 29.065 L 249.26 32.545 C 248.54 32.905 247.65 33.085 246.59 33.085 ZM 253.815 25.195 C 253.815 26.395 254.205 27.395 254.985 28.195 C 255.765 28.995 256.755 29.395 257.955 29.395 C 259.155 29.395 260.145 28.995 260.925 28.195 C 261.705 27.375 262.095 26.375 262.095 25.195 C 262.095 23.995 261.705 23.005 260.925 22.225 C 260.145 21.425 259.155 21.025 257.955 21.025 C 256.755 21.025 255.765 21.425 254.985 22.225 C 254.205 23.005 253.815 23.995 253.815 25.195 Z M 249.645 25.195 C 249.645 22.975 250.425 21.115 251.985 19.615 C 253.525 18.095 255.515 17.335 257.955 17.335 C 260.395 17.335 262.385 18.095 263.925 19.615 C 265.485 21.135 266.265 22.995 266.265 25.195 C 266.265 27.435 265.485 29.315 263.925 30.835 C 262.365 32.335 260.375 33.085 257.955 33.085 C 255.535 33.085 253.545 32.335 251.985 30.835 C 250.425 29.315 249.645 27.435 249.645 25.195 ZM 278.796 19.465 L 278.796 17.725 L 283.026 17.725 L 283.026 30.955 C 283.026 33.515 282.166 35.475 280.446 36.835 C 278.726 38.195 276.696 38.875 274.356 38.875 C 271.896 38.875 269.936 38.445 268.476 37.585 L 268.476 33.775 C 270.056 34.735 271.866 35.215 273.906 35.215 C 274.526 35.215 275.106 35.148 275.646 35.015 C 276.186 34.888 276.706 34.678 277.206 34.385 C 277.706 34.098 278.096 33.678 278.376 33.125 C 278.656 32.578 278.796 31.925 278.796 31.165 L 278.796 30.235 C 277.616 31.655 275.966 32.365 273.846 32.365 C 271.806 32.365 270.136 31.645 268.836 30.205 C 267.536 28.745 266.886 26.955 266.886 24.835 C 266.886 22.735 267.536 20.955 268.836 19.495 C 270.136 18.055 271.806 17.335 273.846 17.335 C 275.966 17.335 277.616 18.045 278.796 19.465 Z M 275.076 28.705 C 275.876 28.705 276.606 28.515 277.266 28.135 C 277.926 27.755 278.436 27.265 278.796 26.665 L 278.796 23.065 C 278.436 22.465 277.926 21.975 277.266 21.595 C 276.606 21.215 275.876 21.025 275.076 21.025 C 273.896 21.025 272.94 21.392 272.206 22.125 C 271.48 22.852 271.116 23.765 271.116 24.865 C 271.116 25.965 271.49 26.882 272.236 27.615 C 272.99 28.342 273.936 28.705 275.076 28.705 ZM 299.757 29.425 C 300.117 29.425 300.407 29.365 300.627 29.245 L 300.627 32.335 C 300.087 32.755 299.327 32.965 298.347 32.965 C 296.647 32.965 295.517 32.325 294.957 31.045 C 293.637 32.405 291.917 33.085 289.797 33.085 C 288.157 33.085 286.827 32.625 285.807 31.705 C 284.787 30.785 284.277 29.575 284.277 28.075 C 284.277 26.475 284.857 25.255 286.017 24.415 C 287.177 23.575 288.567 23.155 290.187 23.155 C 291.887 23.155 293.327 23.465 294.507 24.085 L 294.507 23.635 C 294.507 21.755 293.187 20.815 290.547 20.815 C 288.927 20.815 287.417 21.235 286.017 22.075 L 286.017 18.535 C 287.537 17.735 289.387 17.335 291.567 17.335 C 293.727 17.335 295.447 17.855 296.727 18.895 C 298.047 19.935 298.707 21.375 298.707 23.215 L 298.707 28.285 C 298.707 29.045 299.057 29.425 299.757 29.425 Z M 294.507 28.285 L 294.507 26.785 C 293.627 26.205 292.587 25.915 291.387 25.915 C 290.487 25.915 289.771 26.085 289.237 26.425 C 288.711 26.765 288.447 27.245 288.447 27.865 C 288.447 28.505 288.687 28.988 289.167 29.315 C 289.647 29.648 290.297 29.815 291.117 29.815 C 292.597 29.815 293.727 29.305 294.507 28.285 ZM 301.069 25.165 C 301.069 22.805 301.869 20.915 303.469 19.495 C 305.089 18.055 307.019 17.335 309.259 17.335 C 310.899 17.335 312.379 17.665 313.699 18.325 L 313.699 21.925 C 312.399 21.325 311.129 21.025 309.889 21.025 C 308.569 21.025 307.459 21.415 306.559 22.195 C 305.679 22.955 305.239 23.955 305.239 25.195 C 305.239 26.435 305.689 27.445 306.589 28.225 C 307.489 29.005 308.589 29.395 309.889 29.395 C 311.429 29.395 312.779 29.055 313.939 28.375 L 313.939 31.975 C 313.159 32.395 312.329 32.695 311.449 32.875 L 309.679 37.045 L 304.789 37.045 L 307.819 32.965 C 305.879 32.685 304.269 31.845 302.989 30.445 C 301.709 29.045 301.069 27.285 301.069 25.165 ZM 330.281 29.425 C 330.641 29.425 330.931 29.365 331.151 29.245 L 331.151 32.335 C 330.611 32.755 329.851 32.965 328.871 32.965 C 327.171 32.965 326.041 32.325 325.481 31.045 C 324.161 32.405 322.441 33.085 320.321 33.085 C 318.681 33.085 317.351 32.625 316.331 31.705 C 315.311 30.785 314.801 29.575 314.801 28.075 C 314.801 26.475 315.381 25.255 316.541 24.415 C 317.701 23.575 319.091 23.155 320.711 23.155 C 322.411 23.155 323.851 23.465 325.031 24.085 L 325.031 23.635 C 325.031 21.755 323.711 20.815 321.071 20.815 C 319.451 20.815 317.941 21.235 316.541 22.075 L 316.541 18.535 C 318.061 17.735 319.911 17.335 322.091 17.335 C 324.251 17.335 325.971 17.855 327.251 18.895 C 328.571 19.935 329.231 21.375 329.231 23.215 L 329.231 28.285 C 329.231 29.045 329.581 29.425 330.281 29.425 Z M 325.031 28.285 L 325.031 26.785 C 324.151 26.205 323.111 25.915 321.911 25.915 C 321.011 25.915 320.295 26.085 319.761 26.425 C 319.235 26.765 318.971 27.245 318.971 27.865 C 318.971 28.505 319.211 28.988 319.691 29.315 C 320.171 29.648 320.821 29.815 321.641 29.815 C 323.121 29.815 324.251 29.305 325.031 28.285 Z M 319.241 15.415 L 316.961 15.415 C 316.961 14.235 317.271 13.245 317.891 12.445 C 318.531 11.625 319.351 11.215 320.351 11.215 C 320.971 11.215 321.681 11.435 322.481 11.875 C 323.301 12.315 323.921 12.535 324.341 12.535 C 325.021 12.535 325.441 12.125 325.601 11.305 L 327.911 11.305 C 327.891 12.405 327.561 13.395 326.921 14.275 C 326.281 15.115 325.481 15.535 324.521 15.535 C 323.881 15.535 323.161 15.315 322.361 14.875 C 321.541 14.415 320.931 14.185 320.531 14.185 C 319.851 14.185 319.421 14.595 319.241 15.415 ZM 335.763 25.195 C 335.763 26.395 336.153 27.395 336.933 28.195 C 337.713 28.995 338.703 29.395 339.903 29.395 C 341.103 29.395 342.093 28.995 342.873 28.195 C 343.653 27.375 344.043 26.375 344.043 25.195 C 344.043 23.995 343.653 23.005 342.873 22.225 C 342.093 21.425 341.103 21.025 339.903 21.025 C 338.703 21.025 337.713 21.425 336.933 22.225 C 336.153 23.005 335.763 23.995 335.763 25.195 Z M 331.593 25.195 C 331.593 22.975 332.373 21.115 333.933 19.615 C 335.473 18.095 337.463 17.335 339.903 17.335 C 342.343 17.335 344.333 18.095 345.873 19.615 C 347.433 21.135 348.213 22.995 348.213 25.195 C 348.213 27.435 347.433 29.315 345.873 30.835 C 344.313 32.335 342.323 33.085 339.903 33.085 C 337.483 33.085 335.493 32.335 333.933 30.835 C 332.373 29.315 331.593 27.435 331.593 25.195 Z" transform="matrix(1, 0, 0, 1, 0, 0)" style="fill: rgb(60, 60, 59); white-space: pre;"/>
</svg>