<?xml version="1.0" encoding="utf-8"?>
<svg viewBox="6.595 7.207 118.92 125.63" xmlns="http://www.w3.org/2000/svg">
  <g transform="matrix(1, 0, 0, 1, -75.724884, -227.302505)">
    <g>
      <path class="st1" d="M162.01,237.86c-6.35-2.16-13.15-3.35-20.23-3.35s-13.88,1.19-20.23,3.35 c-17.26,5.87-31.15,19.04-37.97,35.84h116.41C193.16,256.9,179.28,243.73,162.01,237.86z" style="fill: rgb(223, 92, 17);"/>
    </g>
    <g>
      <path class="st1" d="M118.16,315.25h83.08c0-19.8-16.05-35.84-35.84-35.84H82.32C82.32,299.2,98.37,315.25,118.16,315.25z" style="fill: rgb(223, 92, 17);"/>
    </g>
    <g>
      <path class="st1" d="M121.55,356.79c6.35,2.16,13.15,3.35,20.23,3.35s13.88-1.19,20.23-3.35c17.26-5.87,31.15-19.04,37.97-35.84 H83.58C90.4,337.74,104.28,350.91,121.55,356.79z" style="fill: rgb(223, 92, 17);"/>
    </g>
  </g>
</svg>