<?xml version="1.0" encoding="utf-8"?>
<svg viewBox="6.595 7.207 393.55 125.63" xmlns="http://www.w3.org/2000/svg">
  <g>
    <g transform="matrix(1, 0, 0, 1, -75.724884, -227.302505)">
      <path class="st0" d="M236.46,318.87v-12.58c4.43,2.92,12.38,5.74,20.54,5.74c5.74,0,8.66-1.41,8.66-4.23 c0-1.31-0.6-2.32-2.52-3.12c-0.91-0.4-1.81-0.71-2.62-0.91l-3.73-0.91c-1.71-0.5-3.12-0.81-4.03-1.11 c-11.58-3.12-16.31-6.75-16.31-15.6c0-9.56,8.36-15.4,22.15-15.4c7.55,0,13.89,1.51,18.83,4.63v12.08 c-6.04-3.52-12.08-5.24-18.22-5.24c-5.34,0-8.05,1.31-8.05,4.03c0,1.71,1.31,2.42,2.82,3.32c1.11,0.4,3.12,0.91,4.33,1.31 l5.34,1.11c10.87,2.52,16.41,7.15,16.41,15.91c0,4.73-2.01,8.46-6.14,11.38s-9.56,4.33-16.31,4.33 C248.64,323.6,241.59,321.99,236.46,318.87z" style="fill: rgb(255, 255, 255);"/>
      <path class="st0" d="M336.83,310.71v10.37c-1.81,1.41-4.33,2.11-7.65,2.11c-5.74,0-9.46-2.11-11.38-6.44 c-4.43,4.53-10.17,6.85-17.32,6.85c-10.87,0-18.52-6.64-18.52-16.81c0-5.34,1.91-9.46,5.84-12.28c3.93-2.82,8.56-4.23,13.99-4.23 c5.64,0,10.47,1.01,14.5,3.12v-1.51c0-6.34-4.43-9.46-13.29-9.46c-5.34,0-10.47,1.41-15.2,4.23v-11.88 c5.13-2.72,11.28-4.03,18.63-4.03c7.15,0,12.99,1.71,17.32,5.24c4.43,3.52,6.64,8.36,6.64,14.5v17.01c0,2.52,1.21,3.83,3.52,3.83 C335.12,311.32,336.13,311.12,336.83,310.71z M316.29,302.46c-2.92-1.91-6.34-2.92-10.47-2.92c-6.04,0-9.87,2.42-9.87,6.54 c0,4.43,3.73,6.54,8.96,6.54c4.93,0,8.76-1.71,11.38-5.13V302.46z" style="fill: rgb(255, 255, 255);"/>
      <path class="st0" d="M378.82,272.05h14.2v44.4c0,18.42-14.9,26.58-29.1,26.58c-8.26,0-14.8-1.41-19.73-4.33v-12.79 c5.34,3.22,11.48,4.83,18.22,4.83c7.75,0,16.41-2.92,16.41-13.59v-3.12c-3.93,4.73-9.46,7.15-16.61,7.15 c-6.85,0-12.48-2.42-16.81-7.25c-4.33-4.83-6.54-10.87-6.54-18.02s2.21-13.09,6.54-17.92c4.33-4.83,9.97-7.25,16.81-7.25 c7.15,0,12.69,2.42,16.61,7.15V272.05z M378.82,302.05v-12.08c-2.32-3.93-6.95-6.85-12.48-6.85c-7.95,0-13.29,5.54-13.29,12.89 c0,7.35,5.54,12.89,13.29,12.89C371.87,308.9,376.5,305.98,378.82,302.05z" style="fill: rgb(255, 255, 255);"/>
      <path class="st0" d="M436.1,272.05h14.2v50.24h-14.2v-6.04c-4.53,4.93-10.07,7.35-16.81,7.35c-11.68,0-18.32-7.85-18.32-20.74 v-30.81h14.2v27.89c0,7.75,4.33,10.67,9.56,10.67c4.43,0,8.96-2.82,11.38-6.54V272.05z" style="fill: rgb(255, 255, 255);"/>
      <path class="st0" d="M467.41,250.21c4.73,0,8.46,3.73,8.46,8.56c0,4.73-3.73,8.46-8.46,8.46c-4.73,0-8.46-3.73-8.46-8.46 C458.96,253.93,462.68,250.21,467.41,250.21z M460.36,322.29v-50.24h14.2v50.24H460.36z" style="fill: rgb(255, 255, 255);"/>
    </g>
    <g transform="matrix(1, 0, 0, 1, -75.724884, -227.302505)">
      <g>
        <path class="st1" d="M162.01,237.86c-6.35-2.16-13.15-3.35-20.23-3.35s-13.88,1.19-20.23,3.35 c-17.26,5.87-31.15,19.04-37.97,35.84h116.41C193.16,256.9,179.28,243.73,162.01,237.86z" style="fill: rgb(223, 92, 17);"/>
      </g>
      <g>
        <path class="st1" d="M118.16,315.25h83.08c0-19.8-16.05-35.84-35.84-35.84H82.32C82.32,299.2,98.37,315.25,118.16,315.25z" style="fill: rgb(223, 92, 17);"/>
      </g>
      <g>
        <path class="st1" d="M121.55,356.79c6.35,2.16,13.15,3.35,20.23,3.35s13.88-1.19,20.23-3.35c17.26-5.87,31.15-19.04,37.97-35.84 H83.58C90.4,337.74,104.28,350.91,121.55,356.79z" style="fill: rgb(223, 92, 17);"/>
      </g>
    </g>
  </g>
</svg>