<?xml version="1.0" encoding="utf-8"?>
<svg viewBox="6.595 7.207 393.55 125.63" xmlns="http://www.w3.org/2000/svg">
  <g transform="matrix(1, 0, 0, 1, -75.724884, -227.302505)">
    <path class="st0" d="M236.46,318.87v-12.58c4.43,2.92,12.38,5.74,20.54,5.74c5.74,0,8.66-1.41,8.66-4.23 c0-1.31-0.6-2.32-2.52-3.12c-0.91-0.4-1.81-0.71-2.62-0.91l-3.73-0.91c-1.71-0.5-3.12-0.81-4.03-1.11 c-11.58-3.12-16.31-6.75-16.31-15.6c0-9.56,8.36-15.4,22.15-15.4c7.55,0,13.89,1.51,18.83,4.63v12.08 c-6.04-3.52-12.08-5.24-18.22-5.24c-5.34,0-8.05,1.31-8.05,4.03c0,1.71,1.31,2.42,2.82,3.32c1.11,0.4,3.12,0.91,4.33,1.31 l5.34,1.11c10.87,2.52,16.41,7.15,16.41,15.91c0,4.73-2.01,8.46-6.14,11.38s-9.56,4.33-16.31,4.33 C248.64,323.6,241.59,321.99,236.46,318.87z" style="fill: rgb(60, 60, 59);"/>
    <path class="st0" d="M336.83,310.71v10.37c-1.81,1.41-4.33,2.11-7.65,2.11c-5.74,0-9.46-2.11-11.38-6.44 c-4.43,4.53-10.17,6.85-17.32,6.85c-10.87,0-18.52-6.64-18.52-16.81c0-5.34,1.91-9.46,5.84-12.28c3.93-2.82,8.56-4.23,13.99-4.23 c5.64,0,10.47,1.01,14.5,3.12v-1.51c0-6.34-4.43-9.46-13.29-9.46c-5.34,0-10.47,1.41-15.2,4.23v-11.88 c5.13-2.72,11.28-4.03,18.63-4.03c7.15,0,12.99,1.71,17.32,5.24c4.43,3.52,6.64,8.36,6.64,14.5v17.01c0,2.52,1.21,3.83,3.52,3.83 C335.12,311.32,336.13,311.12,336.83,310.71z M316.29,302.46c-2.92-1.91-6.34-2.92-10.47-2.92c-6.04,0-9.87,2.42-9.87,6.54 c0,4.43,3.73,6.54,8.96,6.54c4.93,0,8.76-1.71,11.38-5.13V302.46z" style="fill: rgb(60, 60, 59);"/>
    <path class="st0" d="M378.82,272.05h14.2v44.4c0,18.42-14.9,26.58-29.1,26.58c-8.26,0-14.8-1.41-19.73-4.33v-12.79 c5.34,3.22,11.48,4.83,18.22,4.83c7.75,0,16.41-2.92,16.41-13.59v-3.12c-3.93,4.73-9.46,7.15-16.61,7.15 c-6.85,0-12.48-2.42-16.81-7.25c-4.33-4.83-6.54-10.87-6.54-18.02s2.21-13.09,6.54-17.92c4.33-4.83,9.97-7.25,16.81-7.25 c7.15,0,12.69,2.42,16.61,7.15V272.05z M378.82,302.05v-12.08c-2.32-3.93-6.95-6.85-12.48-6.85c-7.95,0-13.29,5.54-13.29,12.89 c0,7.35,5.54,12.89,13.29,12.89C371.87,308.9,376.5,305.98,378.82,302.05z" style="fill: rgb(60, 60, 59);"/>
    <path class="st0" d="M436.1,272.05h14.2v50.24h-14.2v-6.04c-4.53,4.93-10.07,7.35-16.81,7.35c-11.68,0-18.32-7.85-18.32-20.74 v-30.81h14.2v27.89c0,7.75,4.33,10.67,9.56,10.67c4.43,0,8.96-2.82,11.38-6.54V272.05z" style="fill: rgb(60, 60, 59);"/>
    <path class="st0" d="M467.41,250.21c4.73,0,8.46,3.73,8.46,8.56c0,4.73-3.73,8.46-8.46,8.46c-4.73,0-8.46-3.73-8.46-8.46 C458.96,253.93,462.68,250.21,467.41,250.21z M460.36,322.29v-50.24h14.2v50.24H460.36z" style="fill: rgb(60, 60, 59);"/>
  </g>
  <g transform="matrix(1, 0, 0, 1, -75.724884, -227.302505)">
    <g>
      <path class="st1" d="M162.01,237.86c-6.35-2.16-13.15-3.35-20.23-3.35s-13.88,1.19-20.23,3.35 c-17.26,5.87-31.15,19.04-37.97,35.84h116.41C193.16,256.9,179.28,243.73,162.01,237.86z" style="fill: rgb(223, 17, 17);"/>
    </g>
    <g>
      <path class="st1" d="M118.16,315.25h83.08c0-19.8-16.05-35.84-35.84-35.84H82.32C82.32,299.2,98.37,315.25,118.16,315.25z" style="fill: rgb(223, 17, 17);"/>
    </g>
    <g>
      <path class="st1" d="M121.55,356.79c6.35,2.16,13.15,3.35,20.23,3.35s13.88-1.19,20.23-3.35c17.26-5.87,31.15-19.04,37.97-35.84 H83.58C90.4,337.74,104.28,350.91,121.55,356.79z" style="fill: rgb(223, 17, 17);"/>
    </g>
  </g>
  <path d="M 168.042 32.695 L 160.712 32.695 L 160.712 13.095 L 168.042 13.095 C 171.215 13.095 173.802 14.008 175.802 15.835 C 177.795 17.668 178.792 20.022 178.792 22.895 C 178.792 25.788 177.795 28.148 175.802 29.975 C 173.822 31.788 171.235 32.695 168.042 32.695 Z M 167.712 16.705 L 164.742 16.705 L 164.742 29.085 L 167.712 29.085 C 169.892 29.085 171.595 28.538 172.822 27.445 C 174.042 26.352 174.652 24.835 174.652 22.895 C 174.652 20.955 174.042 19.438 172.822 18.345 C 171.595 17.252 169.892 16.705 167.712 16.705 ZM 187.329 33.055 C 185.149 33.055 183.312 32.385 181.819 31.045 C 180.325 29.698 179.579 27.915 179.579 25.695 C 179.579 23.622 180.249 21.885 181.589 20.485 C 182.935 19.065 184.692 18.355 186.859 18.355 C 188.872 18.355 190.485 19.075 191.699 20.515 C 192.912 21.955 193.519 23.702 193.519 25.755 L 193.519 26.785 L 183.499 26.785 C 183.705 27.718 184.222 28.438 185.049 28.945 C 185.882 29.445 186.922 29.695 188.169 29.695 C 189.722 29.695 191.215 29.285 192.649 28.465 L 192.649 31.635 C 191.402 32.582 189.629 33.055 187.329 33.055 Z M 183.499 24.265 L 189.629 24.265 C 189.589 23.465 189.305 22.798 188.779 22.265 C 188.245 21.732 187.549 21.465 186.689 21.465 C 185.809 21.465 185.082 21.722 184.509 22.235 C 183.929 22.748 183.592 23.425 183.499 24.265 ZM 199.984 33.055 C 197.504 33.055 195.544 32.618 194.104 31.745 L 194.104 28.245 C 194.778 28.692 195.634 29.068 196.674 29.375 C 197.708 29.682 198.758 29.835 199.824 29.835 C 201.424 29.835 202.224 29.445 202.224 28.665 C 202.224 28.292 201.991 28.002 201.524 27.795 C 201.284 27.682 201.044 27.598 200.804 27.545 L 199.764 27.295 C 199.618 27.255 199.418 27.202 199.164 27.135 C 198.911 27.068 198.738 27.018 198.644 26.985 C 196.984 26.538 195.814 26.002 195.134 25.375 C 194.448 24.748 194.104 23.838 194.104 22.645 C 194.104 21.318 194.651 20.272 195.744 19.505 C 196.838 18.738 198.344 18.355 200.264 18.355 C 202.398 18.355 204.144 18.785 205.504 19.645 L 205.504 23.005 C 203.844 22.038 202.154 21.555 200.434 21.555 C 198.941 21.555 198.194 21.928 198.194 22.675 C 198.194 22.822 198.238 22.955 198.324 23.075 C 198.404 23.195 198.488 23.285 198.574 23.345 C 198.661 23.398 198.798 23.482 198.984 23.595 C 199.091 23.635 199.294 23.695 199.594 23.775 C 199.894 23.862 200.091 23.922 200.184 23.955 L 201.664 24.265 C 203.218 24.618 204.368 25.145 205.114 25.845 C 205.861 26.545 206.234 27.495 206.234 28.695 C 206.234 30.002 205.664 31.055 204.524 31.855 C 203.384 32.655 201.871 33.055 199.984 33.055 ZM 214.293 33.055 C 212.113 33.055 210.276 32.385 208.783 31.045 C 207.29 29.698 206.543 27.915 206.543 25.695 C 206.543 23.622 207.213 21.885 208.553 20.485 C 209.9 19.065 211.656 18.355 213.823 18.355 C 215.836 18.355 217.45 19.075 218.663 20.515 C 219.876 21.955 220.483 23.702 220.483 25.755 L 220.483 26.785 L 210.463 26.785 C 210.67 27.718 211.186 28.438 212.013 28.945 C 212.846 29.445 213.886 29.695 215.133 29.695 C 216.686 29.695 218.18 29.285 219.613 28.465 L 219.613 31.635 C 218.366 32.582 216.593 33.055 214.293 33.055 Z M 210.463 24.265 L 216.593 24.265 C 216.553 23.465 216.27 22.798 215.743 22.265 C 215.21 21.732 214.513 21.465 213.653 21.465 C 212.773 21.465 212.046 21.722 211.473 22.235 C 210.893 22.748 210.556 23.425 210.463 24.265 ZM 225.749 23.795 L 225.749 32.695 L 221.799 32.695 L 221.799 18.725 L 225.749 18.725 L 225.749 20.405 C 227.002 19.038 228.562 18.355 230.429 18.355 C 232.029 18.355 233.279 18.865 234.179 19.885 C 235.072 20.905 235.519 22.318 235.519 24.125 L 235.519 32.695 L 231.569 32.695 L 231.569 24.935 C 231.569 23.928 231.322 23.182 230.829 22.695 C 230.335 22.215 229.695 21.975 228.909 21.975 C 228.315 21.975 227.725 22.145 227.139 22.485 C 226.545 22.832 226.082 23.268 225.749 23.795 ZM 251.2 18.725 L 245.12 32.805 L 241.54 32.805 L 235.46 18.725 L 239.72 18.725 L 243.42 27.795 L 247.08 18.725 L 251.2 18.725 ZM 254.503 25.695 C 254.503 26.815 254.867 27.748 255.593 28.495 C 256.32 29.242 257.243 29.615 258.363 29.615 C 259.483 29.615 260.41 29.242 261.143 28.495 C 261.87 27.728 262.233 26.795 262.233 25.695 C 262.233 24.575 261.87 23.652 261.143 22.925 C 260.41 22.178 259.483 21.805 258.363 21.805 C 257.243 21.805 256.32 22.178 255.593 22.925 C 254.867 23.652 254.503 24.575 254.503 25.695 Z M 250.613 25.695 C 250.613 23.622 251.34 21.885 252.793 20.485 C 254.233 19.065 256.09 18.355 258.363 18.355 C 260.643 18.355 262.503 19.065 263.943 20.485 C 265.397 21.905 266.123 23.642 266.123 25.695 C 266.123 27.788 265.397 29.542 263.943 30.955 C 262.483 32.355 260.623 33.055 258.363 33.055 C 256.11 33.055 254.253 32.355 252.793 30.955 C 251.34 29.542 250.613 27.788 250.613 25.695 ZM 271.054 33.055 C 269.894 33.055 268.984 32.745 268.324 32.125 C 267.658 31.498 267.324 30.522 267.324 29.195 L 267.324 13.095 L 271.274 13.095 L 271.274 28.155 C 271.274 29.088 271.694 29.555 272.534 29.555 C 272.928 29.555 273.264 29.472 273.544 29.305 L 273.544 32.555 C 272.871 32.888 272.041 33.055 271.054 33.055 ZM 288.078 18.725 L 281.998 32.805 L 278.418 32.805 L 272.338 18.725 L 276.598 18.725 L 280.298 27.795 L 283.958 18.725 L 288.078 18.725 ZM 292.841 18.725 L 292.841 32.695 L 288.891 32.695 L 288.891 18.725 L 292.841 18.725 Z M 288.501 15.025 C 288.501 14.352 288.728 13.788 289.181 13.335 C 289.641 12.875 290.198 12.645 290.851 12.645 C 291.505 12.645 292.058 12.875 292.511 13.335 C 292.971 13.788 293.201 14.352 293.201 15.025 C 293.201 15.678 292.971 16.235 292.511 16.695 C 292.058 17.148 291.505 17.375 290.851 17.375 C 290.198 17.375 289.641 17.148 289.181 16.695 C 288.728 16.235 288.501 15.678 288.501 15.025 ZM 299.141 23.815 L 299.141 32.695 L 295.191 32.695 L 295.191 18.725 L 299.141 18.725 L 299.141 20.435 C 300.188 19.048 301.608 18.355 303.401 18.355 C 304.408 18.355 305.308 18.582 306.101 19.035 C 306.894 19.482 307.441 20.048 307.741 20.735 C 308.208 20.028 308.878 19.455 309.751 19.015 C 310.631 18.575 311.564 18.355 312.551 18.355 C 314.084 18.355 315.298 18.842 316.191 19.815 C 317.091 20.788 317.541 22.168 317.541 23.955 L 317.541 32.695 L 313.591 32.695 L 313.591 24.855 C 313.591 22.935 312.814 21.975 311.261 21.975 C 310.668 21.975 310.101 22.152 309.561 22.505 C 309.014 22.858 308.611 23.315 308.351 23.875 L 308.351 32.695 L 304.401 32.695 L 304.401 24.855 C 304.401 22.935 303.628 21.975 302.081 21.975 C 301.521 21.975 300.961 22.152 300.401 22.505 C 299.841 22.858 299.421 23.295 299.141 23.815 ZM 326.236 33.055 C 324.056 33.055 322.219 32.385 320.726 31.045 C 319.232 29.698 318.486 27.915 318.486 25.695 C 318.486 23.622 319.156 21.885 320.496 20.485 C 321.842 19.065 323.599 18.355 325.766 18.355 C 327.779 18.355 329.392 19.075 330.606 20.515 C 331.819 21.955 332.426 23.702 332.426 25.755 L 332.426 26.785 L 322.406 26.785 C 322.612 27.718 323.129 28.438 323.956 28.945 C 324.789 29.445 325.829 29.695 327.076 29.695 C 328.629 29.695 330.122 29.285 331.556 28.465 L 331.556 31.635 C 330.309 32.582 328.536 33.055 326.236 33.055 Z M 322.406 24.265 L 328.536 24.265 C 328.496 23.465 328.212 22.798 327.686 22.265 C 327.152 21.732 326.456 21.465 325.596 21.465 C 324.716 21.465 323.989 21.722 323.416 22.235 C 322.836 22.748 322.499 23.425 322.406 24.265 ZM 337.691 23.795 L 337.691 32.695 L 333.741 32.695 L 333.741 18.725 L 337.691 18.725 L 337.691 20.405 C 338.945 19.038 340.505 18.355 342.371 18.355 C 343.971 18.355 345.221 18.865 346.121 19.885 C 347.015 20.905 347.461 22.318 347.461 24.125 L 347.461 32.695 L 343.511 32.695 L 343.511 24.935 C 343.511 23.928 343.265 23.182 342.771 22.695 C 342.278 22.215 341.638 21.975 340.851 21.975 C 340.258 21.975 339.668 22.145 339.081 22.485 C 338.488 22.832 338.025 23.268 337.691 23.795 ZM 350.656 28.355 L 350.656 22.025 L 347.906 22.025 L 347.906 18.725 L 350.656 18.725 L 350.656 14.885 L 354.606 14.885 L 354.606 18.725 L 358.576 18.725 L 358.576 22.025 L 354.606 22.025 L 354.606 27.575 C 354.606 28.262 354.753 28.758 355.046 29.065 C 355.346 29.378 355.833 29.535 356.506 29.535 C 357.2 29.535 357.88 29.365 358.546 29.025 L 358.546 32.305 C 357.726 32.805 356.616 33.055 355.216 33.055 C 352.176 33.055 350.656 31.488 350.656 28.355 ZM 362.948 25.695 C 362.948 26.815 363.311 27.748 364.038 28.495 C 364.765 29.242 365.688 29.615 366.808 29.615 C 367.928 29.615 368.855 29.242 369.588 28.495 C 370.315 27.728 370.678 26.795 370.678 25.695 C 370.678 24.575 370.315 23.652 369.588 22.925 C 368.855 22.178 367.928 21.805 366.808 21.805 C 365.688 21.805 364.765 22.178 364.038 22.925 C 363.311 23.652 362.948 24.575 362.948 25.695 Z M 359.058 25.695 C 359.058 23.622 359.785 21.885 361.238 20.485 C 362.678 19.065 364.535 18.355 366.808 18.355 C 369.088 18.355 370.948 19.065 372.388 20.485 C 373.841 21.905 374.568 23.642 374.568 25.695 C 374.568 27.788 373.841 29.542 372.388 30.955 C 370.928 32.355 369.068 33.055 366.808 33.055 C 364.555 33.055 362.698 32.355 361.238 30.955 C 359.785 29.542 359.058 27.788 359.058 25.695 Z" transform="matrix(1, 0, 0, 1, 0, 0)" style="fill: rgb(60, 60, 59); white-space: pre;"/>
</svg>